<mxfile host="app.diagrams.net" modified="2023-04-04T12:00:25.709Z" agent="Mozilla/5.0 (Windows NT 10.0; Win64; x64) AppleWebKit/537.36 (KHTML, like Gecko) Chrome/111.0.0.0 Safari/537.36" etag="WsbnWomDusrY2U_ZDouf" version="21.1.4" type="github" pages="2">
  <diagram id="aBMzIkLXz1yRVOYzShiP" name="Main">
    <mxGraphModel dx="3185" dy="1268" grid="1" gridSize="10" guides="1" tooltips="1" connect="1" arrows="1" fold="1" page="1" pageScale="1" pageWidth="827" pageHeight="1169" math="0" shadow="0">
      <root>
        <mxCell id="0" />
        <mxCell id="1" parent="0" />
        <mxCell id="rd3gpK9eCs8-gUYzx0VU-1" value="User" style="whiteSpace=wrap;html=1;align=center;fillColor=#f8cecc;strokeColor=#b85450;" parent="1" vertex="1">
          <mxGeometry x="373" y="270" width="100" height="40" as="geometry" />
        </mxCell>
        <mxCell id="rd3gpK9eCs8-gUYzx0VU-2" value="Admin" style="whiteSpace=wrap;html=1;align=center;fillColor=#ffe6cc;strokeColor=#d79b00;" parent="1" vertex="1">
          <mxGeometry x="190" y="30" width="100" height="40" as="geometry" />
        </mxCell>
        <mxCell id="rd3gpK9eCs8-gUYzx0VU-3" value="Thông thường" style="whiteSpace=wrap;html=1;align=center;fillColor=#ffe6cc;strokeColor=#d79b00;" parent="1" vertex="1">
          <mxGeometry x="480" y="20" width="100" height="40" as="geometry" />
        </mxCell>
        <mxCell id="rd3gpK9eCs8-gUYzx0VU-5" value="d" style="ellipse;whiteSpace=wrap;html=1;aspect=fixed;" parent="1" vertex="1">
          <mxGeometry x="408" y="140" width="30" height="30" as="geometry" />
        </mxCell>
        <mxCell id="rd3gpK9eCs8-gUYzx0VU-6" value="" style="shape=link;html=1;rounded=0;" parent="1" source="rd3gpK9eCs8-gUYzx0VU-1" target="rd3gpK9eCs8-gUYzx0VU-5" edge="1">
          <mxGeometry relative="1" as="geometry">
            <mxPoint x="330" y="610" as="sourcePoint" />
            <mxPoint x="490" y="610" as="targetPoint" />
          </mxGeometry>
        </mxCell>
        <mxCell id="rd3gpK9eCs8-gUYzx0VU-8" value="" style="endArrow=none;html=1;rounded=0;" parent="1" source="rd3gpK9eCs8-gUYzx0VU-5" target="rd3gpK9eCs8-gUYzx0VU-2" edge="1">
          <mxGeometry width="50" height="50" relative="1" as="geometry">
            <mxPoint x="420" y="220" as="sourcePoint" />
            <mxPoint x="470" y="170" as="targetPoint" />
          </mxGeometry>
        </mxCell>
        <mxCell id="rd3gpK9eCs8-gUYzx0VU-9" value="" style="endArrow=none;html=1;rounded=0;" parent="1" source="rd3gpK9eCs8-gUYzx0VU-5" target="rd3gpK9eCs8-gUYzx0VU-3" edge="1">
          <mxGeometry width="50" height="50" relative="1" as="geometry">
            <mxPoint x="411" y="242" as="sourcePoint" />
            <mxPoint x="311" y="290" as="targetPoint" />
          </mxGeometry>
        </mxCell>
        <mxCell id="Jqu8XaU1EDlUcJZMT5x3-2" value="Thiết bị" style="whiteSpace=wrap;html=1;align=center;fillColor=#f8cecc;strokeColor=#b85450;" parent="1" vertex="1">
          <mxGeometry x="-150" y="500" width="100" height="40" as="geometry" />
        </mxCell>
        <mxCell id="Jqu8XaU1EDlUcJZMT5x3-3" value="Quạt" style="whiteSpace=wrap;html=1;align=center;fillColor=#ffe6cc;strokeColor=#d79b00;" parent="1" vertex="1">
          <mxGeometry x="-170" y="750" width="100" height="40" as="geometry" />
        </mxCell>
        <mxCell id="Jqu8XaU1EDlUcJZMT5x3-4" value="Đèn" style="whiteSpace=wrap;html=1;align=center;fillColor=#ffe6cc;strokeColor=#d79b00;" parent="1" vertex="1">
          <mxGeometry x="-310" y="755" width="100" height="40" as="geometry" />
        </mxCell>
        <mxCell id="Jqu8XaU1EDlUcJZMT5x3-5" value="d" style="ellipse;whiteSpace=wrap;html=1;aspect=fixed;" parent="1" vertex="1">
          <mxGeometry x="-150" y="635" width="30" height="30" as="geometry" />
        </mxCell>
        <mxCell id="Jqu8XaU1EDlUcJZMT5x3-6" value="" style="shape=link;html=1;rounded=0;" parent="1" source="Jqu8XaU1EDlUcJZMT5x3-2" target="Jqu8XaU1EDlUcJZMT5x3-5" edge="1">
          <mxGeometry relative="1" as="geometry">
            <mxPoint x="-134" y="1215" as="sourcePoint" />
            <mxPoint x="26" y="1215" as="targetPoint" />
          </mxGeometry>
        </mxCell>
        <mxCell id="Jqu8XaU1EDlUcJZMT5x3-7" value="" style="endArrow=none;html=1;rounded=0;" parent="1" source="Jqu8XaU1EDlUcJZMT5x3-5" target="Jqu8XaU1EDlUcJZMT5x3-3" edge="1">
          <mxGeometry width="50" height="50" relative="1" as="geometry">
            <mxPoint x="-44" y="825" as="sourcePoint" />
            <mxPoint x="6" y="775" as="targetPoint" />
          </mxGeometry>
        </mxCell>
        <mxCell id="Jqu8XaU1EDlUcJZMT5x3-8" value="" style="endArrow=none;html=1;rounded=0;" parent="1" source="Jqu8XaU1EDlUcJZMT5x3-5" target="Jqu8XaU1EDlUcJZMT5x3-4" edge="1">
          <mxGeometry width="50" height="50" relative="1" as="geometry">
            <mxPoint x="-53" y="847" as="sourcePoint" />
            <mxPoint x="-153" y="895" as="targetPoint" />
          </mxGeometry>
        </mxCell>
        <mxCell id="Jqu8XaU1EDlUcJZMT5x3-9" value="Cảm biến" style="whiteSpace=wrap;html=1;align=center;fillColor=#f8cecc;strokeColor=#b85450;" parent="1" vertex="1">
          <mxGeometry x="800" y="510" width="100" height="40" as="geometry" />
        </mxCell>
        <mxCell id="Jqu8XaU1EDlUcJZMT5x3-10" value="Nhiệt độ" style="whiteSpace=wrap;html=1;align=center;fillColor=#ffe6cc;strokeColor=#d79b00;" parent="1" vertex="1">
          <mxGeometry x="1050" y="830" width="100" height="40" as="geometry" />
        </mxCell>
        <mxCell id="Jqu8XaU1EDlUcJZMT5x3-11" value="Hồng ngoại" style="whiteSpace=wrap;html=1;align=center;fillColor=#ffe6cc;strokeColor=#d79b00;" parent="1" vertex="1">
          <mxGeometry x="880" y="840" width="100" height="40" as="geometry" />
        </mxCell>
        <mxCell id="Jqu8XaU1EDlUcJZMT5x3-12" value="d" style="ellipse;whiteSpace=wrap;html=1;aspect=fixed;" parent="1" vertex="1">
          <mxGeometry x="827" y="620" width="30" height="30" as="geometry" />
        </mxCell>
        <mxCell id="Jqu8XaU1EDlUcJZMT5x3-13" value="" style="shape=link;html=1;rounded=0;" parent="1" source="Jqu8XaU1EDlUcJZMT5x3-9" target="Jqu8XaU1EDlUcJZMT5x3-12" edge="1">
          <mxGeometry relative="1" as="geometry">
            <mxPoint x="869" y="1130" as="sourcePoint" />
            <mxPoint x="1029" y="1130" as="targetPoint" />
          </mxGeometry>
        </mxCell>
        <mxCell id="Jqu8XaU1EDlUcJZMT5x3-14" value="" style="endArrow=none;html=1;rounded=0;" parent="1" source="Jqu8XaU1EDlUcJZMT5x3-12" target="Jqu8XaU1EDlUcJZMT5x3-10" edge="1">
          <mxGeometry width="50" height="50" relative="1" as="geometry">
            <mxPoint x="959" y="740" as="sourcePoint" />
            <mxPoint x="1009" y="690" as="targetPoint" />
          </mxGeometry>
        </mxCell>
        <mxCell id="Jqu8XaU1EDlUcJZMT5x3-15" value="" style="endArrow=none;html=1;rounded=0;" parent="1" source="Jqu8XaU1EDlUcJZMT5x3-12" target="Jqu8XaU1EDlUcJZMT5x3-11" edge="1">
          <mxGeometry width="50" height="50" relative="1" as="geometry">
            <mxPoint x="950" y="762" as="sourcePoint" />
            <mxPoint x="850" y="810" as="targetPoint" />
          </mxGeometry>
        </mxCell>
        <mxCell id="Jqu8XaU1EDlUcJZMT5x3-16" value="Cửa" style="whiteSpace=wrap;html=1;align=center;fillColor=#ffe6cc;strokeColor=#d79b00;" parent="1" vertex="1">
          <mxGeometry x="-30" y="755" width="100" height="40" as="geometry" />
        </mxCell>
        <mxCell id="Jqu8XaU1EDlUcJZMT5x3-17" value="" style="endArrow=none;html=1;rounded=0;" parent="1" source="Jqu8XaU1EDlUcJZMT5x3-5" target="Jqu8XaU1EDlUcJZMT5x3-16" edge="1">
          <mxGeometry width="50" height="50" relative="1" as="geometry">
            <mxPoint x="37" y="810" as="sourcePoint" />
            <mxPoint x="-77" y="945" as="targetPoint" />
          </mxGeometry>
        </mxCell>
        <mxCell id="Jqu8XaU1EDlUcJZMT5x3-19" value="Độ ẩm" style="whiteSpace=wrap;html=1;align=center;fillColor=#ffe6cc;strokeColor=#d79b00;" parent="1" vertex="1">
          <mxGeometry x="600" y="820" width="100" height="40" as="geometry" />
        </mxCell>
        <mxCell id="Jqu8XaU1EDlUcJZMT5x3-20" value="Ánh sáng" style="whiteSpace=wrap;html=1;align=center;fillColor=#ffe6cc;strokeColor=#d79b00;" parent="1" vertex="1">
          <mxGeometry x="740" y="830" width="100" height="40" as="geometry" />
        </mxCell>
        <mxCell id="Jqu8XaU1EDlUcJZMT5x3-21" value="" style="endArrow=none;html=1;rounded=0;" parent="1" source="Jqu8XaU1EDlUcJZMT5x3-19" target="Jqu8XaU1EDlUcJZMT5x3-12" edge="1">
          <mxGeometry width="50" height="50" relative="1" as="geometry">
            <mxPoint x="978" y="692" as="sourcePoint" />
            <mxPoint x="1170" y="655" as="targetPoint" />
          </mxGeometry>
        </mxCell>
        <mxCell id="Jqu8XaU1EDlUcJZMT5x3-22" value="" style="endArrow=none;html=1;rounded=0;" parent="1" source="Jqu8XaU1EDlUcJZMT5x3-20" target="Jqu8XaU1EDlUcJZMT5x3-12" edge="1">
          <mxGeometry width="50" height="50" relative="1" as="geometry">
            <mxPoint x="977" y="615" as="sourcePoint" />
            <mxPoint x="965" y="680" as="targetPoint" />
          </mxGeometry>
        </mxCell>
        <mxCell id="g2_H-QGqGs-jdcmZxHJL-1" value="Thiết lập" style="shape=rhombus;perimeter=rhombusPerimeter;whiteSpace=wrap;html=1;align=center;fillColor=#dae8fc;strokeColor=#6c8ebf;" parent="1" vertex="1">
          <mxGeometry x="120" y="340" width="120" height="60" as="geometry" />
        </mxCell>
        <mxCell id="g2_H-QGqGs-jdcmZxHJL-2" value="Giới tính" style="ellipse;whiteSpace=wrap;html=1;align=center;fillColor=#d5e8d4;strokeColor=#82b366;" parent="1" vertex="1">
          <mxGeometry x="290" y="135" width="100" height="40" as="geometry" />
        </mxCell>
        <mxCell id="g2_H-QGqGs-jdcmZxHJL-3" value="Mã user" style="ellipse;whiteSpace=wrap;html=1;align=center;fontStyle=4;fillColor=#e1d5e7;strokeColor=#9673a6;" parent="1" vertex="1">
          <mxGeometry x="199" y="230" width="100" height="40" as="geometry" />
        </mxCell>
        <mxCell id="qpDYERSgckwAivpAdX6R-3" value="Họ tên" style="ellipse;whiteSpace=wrap;html=1;align=center;fillColor=#d5e8d4;strokeColor=#82b366;" parent="1" vertex="1">
          <mxGeometry x="180" y="170" width="100" height="40" as="geometry" />
        </mxCell>
        <mxCell id="qpDYERSgckwAivpAdX6R-4" value="Ngày sinh" style="ellipse;whiteSpace=wrap;html=1;align=center;fillColor=#d5e8d4;strokeColor=#82b366;" parent="1" vertex="1">
          <mxGeometry x="510" y="100" width="100" height="40" as="geometry" />
        </mxCell>
        <mxCell id="qpDYERSgckwAivpAdX6R-5" value="CCCD" style="ellipse;whiteSpace=wrap;html=1;align=center;fillColor=#d5e8d4;strokeColor=#82b366;" parent="1" vertex="1">
          <mxGeometry x="500" y="170" width="100" height="40" as="geometry" />
        </mxCell>
        <mxCell id="qpDYERSgckwAivpAdX6R-6" value="Email" style="ellipse;whiteSpace=wrap;html=1;align=center;fillColor=#d5e8d4;strokeColor=#82b366;" parent="1" vertex="1">
          <mxGeometry x="180" y="110" width="100" height="40" as="geometry" />
        </mxCell>
        <mxCell id="qpDYERSgckwAivpAdX6R-7" value="Số điện thoại" style="ellipse;whiteSpace=wrap;html=1;align=center;fillColor=#d5e8d4;strokeColor=#82b366;" parent="1" vertex="1">
          <mxGeometry x="560" y="320" width="100" height="40" as="geometry" />
        </mxCell>
        <mxCell id="qpDYERSgckwAivpAdX6R-8" value="Tài khoản" style="ellipse;whiteSpace=wrap;html=1;align=center;fillColor=#d5e8d4;strokeColor=#82b366;" parent="1" vertex="1">
          <mxGeometry x="610" y="170" width="100" height="40" as="geometry" />
        </mxCell>
        <mxCell id="qpDYERSgckwAivpAdX6R-9" value="Mật khẩu" style="ellipse;whiteSpace=wrap;html=1;align=center;fillColor=#d5e8d4;strokeColor=#82b366;" parent="1" vertex="1">
          <mxGeometry x="650" y="260" width="100" height="40" as="geometry" />
        </mxCell>
        <mxCell id="qpDYERSgckwAivpAdX6R-10" value="Trạng thái" style="ellipse;whiteSpace=wrap;html=1;align=center;fillColor=#d5e8d4;strokeColor=#82b366;" parent="1" vertex="1">
          <mxGeometry x="640" y="30" width="100" height="40" as="geometry" />
        </mxCell>
        <mxCell id="qpDYERSgckwAivpAdX6R-11" value="Vai trò" style="ellipse;whiteSpace=wrap;html=1;align=center;fillColor=#d5e8d4;strokeColor=#82b366;" parent="1" vertex="1">
          <mxGeometry x="550" y="230" width="100" height="40" as="geometry" />
        </mxCell>
        <mxCell id="qpDYERSgckwAivpAdX6R-14" value="" style="endArrow=none;html=1;rounded=0;" parent="1" source="qpDYERSgckwAivpAdX6R-10" target="rd3gpK9eCs8-gUYzx0VU-3" edge="1">
          <mxGeometry width="50" height="50" relative="1" as="geometry">
            <mxPoint x="690.0046609406726" y="214.14213562373106" as="sourcePoint" />
            <mxPoint x="625" y="240" as="targetPoint" />
          </mxGeometry>
        </mxCell>
        <mxCell id="qpDYERSgckwAivpAdX6R-15" value="" style="endArrow=none;html=1;rounded=0;" parent="1" source="rd3gpK9eCs8-gUYzx0VU-1" target="qpDYERSgckwAivpAdX6R-11" edge="1">
          <mxGeometry width="50" height="50" relative="1" as="geometry">
            <mxPoint x="695" y="224" as="sourcePoint" />
            <mxPoint x="630" y="250" as="targetPoint" />
          </mxGeometry>
        </mxCell>
        <mxCell id="qpDYERSgckwAivpAdX6R-16" value="" style="endArrow=none;html=1;rounded=0;" parent="1" source="rd3gpK9eCs8-gUYzx0VU-1" target="qpDYERSgckwAivpAdX6R-5" edge="1">
          <mxGeometry width="50" height="50" relative="1" as="geometry">
            <mxPoint x="474" y="58" as="sourcePoint" />
            <mxPoint x="624" y="82" as="targetPoint" />
          </mxGeometry>
        </mxCell>
        <mxCell id="qpDYERSgckwAivpAdX6R-17" value="" style="endArrow=none;html=1;rounded=0;" parent="1" source="rd3gpK9eCs8-gUYzx0VU-1" target="qpDYERSgckwAivpAdX6R-4" edge="1">
          <mxGeometry width="50" height="50" relative="1" as="geometry">
            <mxPoint x="474" y="36" as="sourcePoint" />
            <mxPoint x="559" y="12" as="targetPoint" />
          </mxGeometry>
        </mxCell>
        <mxCell id="qpDYERSgckwAivpAdX6R-18" value="" style="endArrow=none;html=1;rounded=0;" parent="1" source="rd3gpK9eCs8-gUYzx0VU-1" target="g2_H-QGqGs-jdcmZxHJL-2" edge="1">
          <mxGeometry width="50" height="50" relative="1" as="geometry">
            <mxPoint x="453" y="30" as="sourcePoint" />
            <mxPoint x="545" y="-33" as="targetPoint" />
          </mxGeometry>
        </mxCell>
        <mxCell id="qpDYERSgckwAivpAdX6R-19" value="" style="endArrow=none;html=1;rounded=0;" parent="1" source="rd3gpK9eCs8-gUYzx0VU-1" target="qpDYERSgckwAivpAdX6R-3" edge="1">
          <mxGeometry width="50" height="50" relative="1" as="geometry">
            <mxPoint x="432" y="30" as="sourcePoint" />
            <mxPoint x="466" y="-60" as="targetPoint" />
          </mxGeometry>
        </mxCell>
        <mxCell id="qpDYERSgckwAivpAdX6R-21" value="" style="endArrow=none;html=1;rounded=0;" parent="1" source="rd3gpK9eCs8-gUYzx0VU-1" target="g2_H-QGqGs-jdcmZxHJL-3" edge="1">
          <mxGeometry width="50" height="50" relative="1" as="geometry">
            <mxPoint x="418" y="30" as="sourcePoint" />
            <mxPoint x="385" y="-90" as="targetPoint" />
          </mxGeometry>
        </mxCell>
        <mxCell id="qpDYERSgckwAivpAdX6R-22" value="" style="endArrow=none;html=1;rounded=0;" parent="1" source="rd3gpK9eCs8-gUYzx0VU-1" target="qpDYERSgckwAivpAdX6R-6" edge="1">
          <mxGeometry width="50" height="50" relative="1" as="geometry">
            <mxPoint x="405" y="30" as="sourcePoint" />
            <mxPoint x="308" y="-71" as="targetPoint" />
          </mxGeometry>
        </mxCell>
        <mxCell id="qpDYERSgckwAivpAdX6R-23" value="" style="endArrow=none;html=1;rounded=0;" parent="1" source="rd3gpK9eCs8-gUYzx0VU-1" target="qpDYERSgckwAivpAdX6R-7" edge="1">
          <mxGeometry width="50" height="50" relative="1" as="geometry">
            <mxPoint x="417" y="30" as="sourcePoint" />
            <mxPoint x="366" y="-120" as="targetPoint" />
          </mxGeometry>
        </mxCell>
        <mxCell id="qpDYERSgckwAivpAdX6R-24" value="" style="endArrow=none;html=1;rounded=0;" parent="1" source="rd3gpK9eCs8-gUYzx0VU-1" target="qpDYERSgckwAivpAdX6R-8" edge="1">
          <mxGeometry width="50" height="50" relative="1" as="geometry">
            <mxPoint x="450" y="40" as="sourcePoint" />
            <mxPoint x="534" y="-61" as="targetPoint" />
          </mxGeometry>
        </mxCell>
        <mxCell id="qpDYERSgckwAivpAdX6R-25" value="" style="endArrow=none;html=1;rounded=0;" parent="1" source="rd3gpK9eCs8-gUYzx0VU-1" target="qpDYERSgckwAivpAdX6R-9" edge="1">
          <mxGeometry width="50" height="50" relative="1" as="geometry">
            <mxPoint x="476" y="40" as="sourcePoint" />
            <mxPoint x="657" y="-45" as="targetPoint" />
          </mxGeometry>
        </mxCell>
        <mxCell id="qpDYERSgckwAivpAdX6R-26" value="Mã thiết bị" style="ellipse;whiteSpace=wrap;html=1;align=center;fontStyle=4;fillColor=#e1d5e7;strokeColor=#9673a6;" parent="1" vertex="1">
          <mxGeometry x="-210" y="310" width="100" height="40" as="geometry" />
        </mxCell>
        <mxCell id="qpDYERSgckwAivpAdX6R-31" value="Mã cảm biến" style="ellipse;whiteSpace=wrap;html=1;align=center;fontStyle=4;fillColor=#E1D5E7;strokeColor=#9673a6;" parent="1" vertex="1">
          <mxGeometry x="827.44" y="350" width="100" height="40" as="geometry" />
        </mxCell>
        <mxCell id="qpDYERSgckwAivpAdX6R-35" value="" style="endArrow=none;html=1;rounded=0;" parent="1" source="Jqu8XaU1EDlUcJZMT5x3-2" target="qpDYERSgckwAivpAdX6R-26" edge="1">
          <mxGeometry width="50" height="50" relative="1" as="geometry">
            <mxPoint x="-162.99533905932742" y="913.1421356237311" as="sourcePoint" />
            <mxPoint x="-233" y="940" as="targetPoint" />
          </mxGeometry>
        </mxCell>
        <mxCell id="qpDYERSgckwAivpAdX6R-39" value="" style="endArrow=none;html=1;rounded=0;" parent="1" source="qpDYERSgckwAivpAdX6R-31" target="Jqu8XaU1EDlUcJZMT5x3-9" edge="1">
          <mxGeometry width="50" height="50" relative="1" as="geometry">
            <mxPoint x="479" y="605" as="sourcePoint" />
            <mxPoint x="514" y="628" as="targetPoint" />
          </mxGeometry>
        </mxCell>
        <mxCell id="qpDYERSgckwAivpAdX6R-46" value="" style="endArrow=none;html=1;rounded=0;" parent="1" source="Jqu8XaU1EDlUcJZMT5x3-19" target="qpDYERSgckwAivpAdX6R-47" edge="1">
          <mxGeometry width="50" height="50" relative="1" as="geometry">
            <mxPoint x="522.4470739929004" y="1005" as="sourcePoint" />
            <mxPoint x="600" y="1220" as="targetPoint" />
          </mxGeometry>
        </mxCell>
        <mxCell id="qpDYERSgckwAivpAdX6R-47" value="Tên" style="ellipse;whiteSpace=wrap;html=1;align=center;fillColor=#d5e8d4;strokeColor=#82b366;" parent="1" vertex="1">
          <mxGeometry x="490.00000000000006" y="880" width="100" height="40" as="geometry" />
        </mxCell>
        <mxCell id="ulSbq7-TPYftb54rdm0L-22" value="Dữ liệu hoạt động" style="shape=ext;margin=3;double=1;whiteSpace=wrap;html=1;align=center;fillColor=#ffff88;strokeColor=#36393d;" parent="1" vertex="1">
          <mxGeometry x="1230" y="695" width="100" height="40" as="geometry" />
        </mxCell>
        <mxCell id="ulSbq7-TPYftb54rdm0L-25" value="&lt;span style=&quot;border-bottom: 1px dotted&quot;&gt;Thời gian&lt;/span&gt;" style="ellipse;whiteSpace=wrap;html=1;align=center;fillColor=#E1D5E7;" parent="1" vertex="1">
          <mxGeometry x="1420" y="770" width="100" height="40" as="geometry" />
        </mxCell>
        <mxCell id="ulSbq7-TPYftb54rdm0L-26" value="" style="endArrow=none;html=1;rounded=0;" parent="1" source="ulSbq7-TPYftb54rdm0L-22" target="ulSbq7-TPYftb54rdm0L-25" edge="1">
          <mxGeometry width="50" height="50" relative="1" as="geometry">
            <mxPoint x="1636" y="553" as="sourcePoint" />
            <mxPoint x="1583" y="605" as="targetPoint" />
          </mxGeometry>
        </mxCell>
        <mxCell id="ulSbq7-TPYftb54rdm0L-27" value="Của" style="shape=rhombus;double=1;perimeter=rhombusPerimeter;whiteSpace=wrap;html=1;align=center;fillColor=#cdeb8b;strokeColor=#36393d;" parent="1" vertex="1">
          <mxGeometry x="1000" y="635" width="120" height="60" as="geometry" />
        </mxCell>
        <mxCell id="ulSbq7-TPYftb54rdm0L-28" value="" style="shape=link;html=1;rounded=0;" parent="1" source="ulSbq7-TPYftb54rdm0L-22" target="ulSbq7-TPYftb54rdm0L-27" edge="1">
          <mxGeometry relative="1" as="geometry">
            <mxPoint x="1235" y="825" as="sourcePoint" />
            <mxPoint x="1395" y="825" as="targetPoint" />
          </mxGeometry>
        </mxCell>
        <mxCell id="ulSbq7-TPYftb54rdm0L-29" value="N" style="resizable=0;html=1;whiteSpace=wrap;align=right;verticalAlign=bottom;" parent="ulSbq7-TPYftb54rdm0L-28" connectable="0" vertex="1">
          <mxGeometry x="1" relative="1" as="geometry">
            <mxPoint y="25" as="offset" />
          </mxGeometry>
        </mxCell>
        <mxCell id="ulSbq7-TPYftb54rdm0L-30" value="" style="endArrow=none;html=1;rounded=0;" parent="1" source="Jqu8XaU1EDlUcJZMT5x3-9" target="ulSbq7-TPYftb54rdm0L-27" edge="1">
          <mxGeometry relative="1" as="geometry">
            <mxPoint x="1050" y="850" as="sourcePoint" />
            <mxPoint x="1210" y="850" as="targetPoint" />
          </mxGeometry>
        </mxCell>
        <mxCell id="ulSbq7-TPYftb54rdm0L-31" value="1" style="resizable=0;html=1;whiteSpace=wrap;align=right;verticalAlign=bottom;" parent="ulSbq7-TPYftb54rdm0L-30" connectable="0" vertex="1">
          <mxGeometry x="1" relative="1" as="geometry">
            <mxPoint y="-10" as="offset" />
          </mxGeometry>
        </mxCell>
        <mxCell id="ulSbq7-TPYftb54rdm0L-33" value="Giá trị" style="ellipse;whiteSpace=wrap;html=1;align=center;fillColor=#d5e8d4;strokeColor=#82b366;" parent="1" vertex="1">
          <mxGeometry x="1450" y="680" width="100" height="40" as="geometry" />
        </mxCell>
        <mxCell id="ulSbq7-TPYftb54rdm0L-34" value="" style="endArrow=none;html=1;rounded=0;" parent="1" source="ulSbq7-TPYftb54rdm0L-22" target="ulSbq7-TPYftb54rdm0L-33" edge="1">
          <mxGeometry width="50" height="50" relative="1" as="geometry">
            <mxPoint x="1466" y="875" as="sourcePoint" />
            <mxPoint x="1434" y="945" as="targetPoint" />
          </mxGeometry>
        </mxCell>
        <mxCell id="ulSbq7-TPYftb54rdm0L-37" value="Dữ liệu hoạt động" style="shape=ext;margin=3;double=1;whiteSpace=wrap;html=1;align=center;fillColor=#ffff88;strokeColor=#36393d;" parent="1" vertex="1">
          <mxGeometry x="-570" y="620" width="100" height="40" as="geometry" />
        </mxCell>
        <mxCell id="ulSbq7-TPYftb54rdm0L-38" value="&lt;span style=&quot;border-bottom: 1px dotted&quot;&gt;Thời gian&lt;/span&gt;" style="ellipse;whiteSpace=wrap;html=1;align=center;fillColor=#E1D5E7;" parent="1" vertex="1">
          <mxGeometry x="-720" y="715" width="100" height="40" as="geometry" />
        </mxCell>
        <mxCell id="ulSbq7-TPYftb54rdm0L-39" value="" style="endArrow=none;html=1;rounded=0;" parent="1" source="ulSbq7-TPYftb54rdm0L-37" target="ulSbq7-TPYftb54rdm0L-38" edge="1">
          <mxGeometry width="50" height="50" relative="1" as="geometry">
            <mxPoint x="-224" y="638" as="sourcePoint" />
            <mxPoint x="-277" y="690" as="targetPoint" />
          </mxGeometry>
        </mxCell>
        <mxCell id="ulSbq7-TPYftb54rdm0L-40" value="Của" style="shape=rhombus;double=1;perimeter=rhombusPerimeter;whiteSpace=wrap;html=1;align=center;fillColor=#cdeb8b;strokeColor=#36393d;" parent="1" vertex="1">
          <mxGeometry x="-390" y="575" width="120" height="60" as="geometry" />
        </mxCell>
        <mxCell id="ulSbq7-TPYftb54rdm0L-41" value="" style="shape=link;html=1;rounded=0;" parent="1" source="ulSbq7-TPYftb54rdm0L-37" target="ulSbq7-TPYftb54rdm0L-40" edge="1">
          <mxGeometry relative="1" as="geometry">
            <mxPoint x="-625" y="910" as="sourcePoint" />
            <mxPoint x="-465" y="910" as="targetPoint" />
          </mxGeometry>
        </mxCell>
        <mxCell id="ulSbq7-TPYftb54rdm0L-42" value="N" style="resizable=0;html=1;whiteSpace=wrap;align=right;verticalAlign=bottom;" parent="ulSbq7-TPYftb54rdm0L-41" connectable="0" vertex="1">
          <mxGeometry x="1" relative="1" as="geometry">
            <mxPoint y="25" as="offset" />
          </mxGeometry>
        </mxCell>
        <mxCell id="ulSbq7-TPYftb54rdm0L-43" value="" style="endArrow=none;html=1;rounded=0;" parent="1" source="Jqu8XaU1EDlUcJZMT5x3-2" target="ulSbq7-TPYftb54rdm0L-40" edge="1">
          <mxGeometry relative="1" as="geometry">
            <mxPoint x="-980" y="592" as="sourcePoint" />
            <mxPoint x="-650" y="935" as="targetPoint" />
          </mxGeometry>
        </mxCell>
        <mxCell id="ulSbq7-TPYftb54rdm0L-44" value="1" style="resizable=0;html=1;whiteSpace=wrap;align=right;verticalAlign=bottom;" parent="ulSbq7-TPYftb54rdm0L-43" connectable="0" vertex="1">
          <mxGeometry x="1" relative="1" as="geometry">
            <mxPoint y="-10" as="offset" />
          </mxGeometry>
        </mxCell>
        <mxCell id="ulSbq7-TPYftb54rdm0L-45" value="Giá trị" style="ellipse;whiteSpace=wrap;html=1;align=center;fillColor=#d5e8d4;strokeColor=#82b366;" parent="1" vertex="1">
          <mxGeometry x="-710" y="610" width="100" height="40" as="geometry" />
        </mxCell>
        <mxCell id="ulSbq7-TPYftb54rdm0L-46" value="" style="endArrow=none;html=1;rounded=0;" parent="1" source="ulSbq7-TPYftb54rdm0L-37" target="ulSbq7-TPYftb54rdm0L-45" edge="1">
          <mxGeometry width="50" height="50" relative="1" as="geometry">
            <mxPoint x="-394" y="960" as="sourcePoint" />
            <mxPoint x="-426" y="1030" as="targetPoint" />
          </mxGeometry>
        </mxCell>
        <mxCell id="ulSbq7-TPYftb54rdm0L-55" value="Thiết lập" style="shape=rhombus;perimeter=rhombusPerimeter;whiteSpace=wrap;html=1;align=center;fillColor=#dae8fc;strokeColor=#6c8ebf;" parent="1" vertex="1">
          <mxGeometry x="530" y="430" width="120" height="60" as="geometry" />
        </mxCell>
        <mxCell id="ulSbq7-TPYftb54rdm0L-56" value="Trạng thái" style="ellipse;whiteSpace=wrap;html=1;align=center;fillColor=#d5e8d4;strokeColor=#82b366;" parent="1" vertex="1">
          <mxGeometry x="99" y="460" width="100" height="40" as="geometry" />
        </mxCell>
        <mxCell id="ulSbq7-TPYftb54rdm0L-57" value="Giá trị" style="ellipse;whiteSpace=wrap;html=1;align=center;fillColor=#d5e8d4;strokeColor=#82b366;" parent="1" vertex="1">
          <mxGeometry x="210" y="500" width="100" height="40" as="geometry" />
        </mxCell>
        <mxCell id="ulSbq7-TPYftb54rdm0L-58" value="Tự động" style="ellipse;whiteSpace=wrap;html=1;align=center;fillColor=#d5e8d4;strokeColor=#82b366;" parent="1" vertex="1">
          <mxGeometry x="260" y="440" width="100" height="40" as="geometry" />
        </mxCell>
        <mxCell id="ulSbq7-TPYftb54rdm0L-59" value="Tự động" style="ellipse;whiteSpace=wrap;html=1;align=center;fillColor=#d5e8d4;strokeColor=#82b366;" parent="1" vertex="1">
          <mxGeometry x="-350" y="470" width="100" height="40" as="geometry" />
        </mxCell>
        <mxCell id="ulSbq7-TPYftb54rdm0L-61" value="Trạng thái" style="ellipse;whiteSpace=wrap;html=1;align=center;fillColor=#d5e8d4;strokeColor=#82b366;" parent="1" vertex="1">
          <mxGeometry x="-300" y="390" width="100" height="40" as="geometry" />
        </mxCell>
        <mxCell id="ulSbq7-TPYftb54rdm0L-63" value="" style="endArrow=none;html=1;rounded=0;" parent="1" source="Jqu8XaU1EDlUcJZMT5x3-2" target="ulSbq7-TPYftb54rdm0L-61" edge="1">
          <mxGeometry width="50" height="50" relative="1" as="geometry">
            <mxPoint x="-103" y="535" as="sourcePoint" />
            <mxPoint x="-122" y="380" as="targetPoint" />
          </mxGeometry>
        </mxCell>
        <mxCell id="ulSbq7-TPYftb54rdm0L-64" value="" style="endArrow=none;html=1;rounded=0;" parent="1" source="Jqu8XaU1EDlUcJZMT5x3-2" target="ulSbq7-TPYftb54rdm0L-59" edge="1">
          <mxGeometry width="50" height="50" relative="1" as="geometry">
            <mxPoint x="-100" y="575" as="sourcePoint" />
            <mxPoint x="-169" y="450" as="targetPoint" />
          </mxGeometry>
        </mxCell>
        <mxCell id="ulSbq7-TPYftb54rdm0L-67" value="Trạng thái" style="ellipse;whiteSpace=wrap;html=1;align=center;fillColor=#d5e8d4;strokeColor=#82b366;" parent="1" vertex="1">
          <mxGeometry x="990" y="430" width="100" height="40" as="geometry" />
        </mxCell>
        <mxCell id="ulSbq7-TPYftb54rdm0L-68" value="Ngưỡng dưới" style="ellipse;whiteSpace=wrap;html=1;align=center;fillColor=#d5e8d4;strokeColor=#82b366;" parent="1" vertex="1">
          <mxGeometry x="1000" y="485" width="100" height="40" as="geometry" />
        </mxCell>
        <mxCell id="ulSbq7-TPYftb54rdm0L-69" value="Ngưỡng trên" style="ellipse;whiteSpace=wrap;html=1;align=center;fillColor=#d5e8d4;strokeColor=#82b366;" parent="1" vertex="1">
          <mxGeometry x="900" y="410" width="100" height="40" as="geometry" />
        </mxCell>
        <mxCell id="ulSbq7-TPYftb54rdm0L-70" value="" style="endArrow=none;html=1;rounded=0;" parent="1" source="Jqu8XaU1EDlUcJZMT5x3-9" target="ulSbq7-TPYftb54rdm0L-68" edge="1">
          <mxGeometry width="50" height="50" relative="1" as="geometry">
            <mxPoint x="910" y="546" as="sourcePoint" />
            <mxPoint x="1012" y="559" as="targetPoint" />
          </mxGeometry>
        </mxCell>
        <mxCell id="ulSbq7-TPYftb54rdm0L-71" value="" style="endArrow=none;html=1;rounded=0;" parent="1" source="Jqu8XaU1EDlUcJZMT5x3-9" target="ulSbq7-TPYftb54rdm0L-69" edge="1">
          <mxGeometry width="50" height="50" relative="1" as="geometry">
            <mxPoint x="910" y="534" as="sourcePoint" />
            <mxPoint x="1012" y="521" as="targetPoint" />
          </mxGeometry>
        </mxCell>
        <mxCell id="ulSbq7-TPYftb54rdm0L-72" value="" style="endArrow=none;html=1;rounded=0;" parent="1" source="Jqu8XaU1EDlUcJZMT5x3-9" target="ulSbq7-TPYftb54rdm0L-67" edge="1">
          <mxGeometry width="50" height="50" relative="1" as="geometry">
            <mxPoint x="880" y="520" as="sourcePoint" />
            <mxPoint x="941" y="459" as="targetPoint" />
          </mxGeometry>
        </mxCell>
        <mxCell id="ulSbq7-TPYftb54rdm0L-73" value="" style="endArrow=none;html=1;rounded=0;" parent="1" source="g2_H-QGqGs-jdcmZxHJL-1" target="rd3gpK9eCs8-gUYzx0VU-1" edge="1">
          <mxGeometry relative="1" as="geometry">
            <mxPoint x="-140" y="548" as="sourcePoint" />
            <mxPoint x="-285" y="602" as="targetPoint" />
          </mxGeometry>
        </mxCell>
        <mxCell id="ulSbq7-TPYftb54rdm0L-74" value="N" style="resizable=0;html=1;whiteSpace=wrap;align=right;verticalAlign=bottom;" parent="ulSbq7-TPYftb54rdm0L-73" connectable="0" vertex="1">
          <mxGeometry x="1" relative="1" as="geometry">
            <mxPoint x="-133" y="44" as="offset" />
          </mxGeometry>
        </mxCell>
        <mxCell id="ulSbq7-TPYftb54rdm0L-75" value="" style="endArrow=none;html=1;rounded=0;" parent="1" source="g2_H-QGqGs-jdcmZxHJL-1" target="Jqu8XaU1EDlUcJZMT5x3-2" edge="1">
          <mxGeometry relative="1" as="geometry">
            <mxPoint x="226" y="368" as="sourcePoint" />
            <mxPoint x="383" y="316" as="targetPoint" />
          </mxGeometry>
        </mxCell>
        <mxCell id="ulSbq7-TPYftb54rdm0L-76" value="N" style="resizable=0;html=1;whiteSpace=wrap;align=right;verticalAlign=bottom;" parent="ulSbq7-TPYftb54rdm0L-75" connectable="0" vertex="1">
          <mxGeometry x="1" relative="1" as="geometry">
            <mxPoint x="183" y="-100" as="offset" />
          </mxGeometry>
        </mxCell>
        <mxCell id="ulSbq7-TPYftb54rdm0L-77" value="" style="endArrow=none;html=1;rounded=0;" parent="1" source="g2_H-QGqGs-jdcmZxHJL-1" target="ulSbq7-TPYftb54rdm0L-56" edge="1">
          <mxGeometry width="50" height="50" relative="1" as="geometry">
            <mxPoint x="-140" y="532" as="sourcePoint" />
            <mxPoint x="-260" y="538" as="targetPoint" />
          </mxGeometry>
        </mxCell>
        <mxCell id="ulSbq7-TPYftb54rdm0L-78" value="" style="endArrow=none;html=1;rounded=0;" parent="1" source="g2_H-QGqGs-jdcmZxHJL-1" target="ulSbq7-TPYftb54rdm0L-57" edge="1">
          <mxGeometry width="50" height="50" relative="1" as="geometry">
            <mxPoint x="183" y="406" as="sourcePoint" />
            <mxPoint x="165" y="470" as="targetPoint" />
          </mxGeometry>
        </mxCell>
        <mxCell id="ulSbq7-TPYftb54rdm0L-79" value="" style="endArrow=none;html=1;rounded=0;" parent="1" source="g2_H-QGqGs-jdcmZxHJL-1" target="ulSbq7-TPYftb54rdm0L-58" edge="1">
          <mxGeometry width="50" height="50" relative="1" as="geometry">
            <mxPoint x="203" y="404" as="sourcePoint" />
            <mxPoint x="260" y="510" as="targetPoint" />
          </mxGeometry>
        </mxCell>
        <mxCell id="ulSbq7-TPYftb54rdm0L-80" value="" style="endArrow=none;html=1;rounded=0;" parent="1" source="ulSbq7-TPYftb54rdm0L-55" target="rd3gpK9eCs8-gUYzx0VU-1" edge="1">
          <mxGeometry relative="1" as="geometry">
            <mxPoint x="226" y="368" as="sourcePoint" />
            <mxPoint x="383" y="316" as="targetPoint" />
          </mxGeometry>
        </mxCell>
        <mxCell id="ulSbq7-TPYftb54rdm0L-81" value="N" style="resizable=0;html=1;whiteSpace=wrap;align=right;verticalAlign=bottom;" parent="ulSbq7-TPYftb54rdm0L-80" connectable="0" vertex="1">
          <mxGeometry x="1" relative="1" as="geometry">
            <mxPoint x="127" y="110" as="offset" />
          </mxGeometry>
        </mxCell>
        <mxCell id="ulSbq7-TPYftb54rdm0L-82" value="" style="endArrow=none;html=1;rounded=0;" parent="1" source="ulSbq7-TPYftb54rdm0L-55" target="Jqu8XaU1EDlUcJZMT5x3-9" edge="1">
          <mxGeometry relative="1" as="geometry">
            <mxPoint x="161" y="396" as="sourcePoint" />
            <mxPoint x="-53" y="510" as="targetPoint" />
          </mxGeometry>
        </mxCell>
        <mxCell id="ulSbq7-TPYftb54rdm0L-83" value="N" style="resizable=0;html=1;whiteSpace=wrap;align=right;verticalAlign=bottom;" parent="ulSbq7-TPYftb54rdm0L-82" connectable="0" vertex="1">
          <mxGeometry x="1" relative="1" as="geometry">
            <mxPoint x="-130" y="-47" as="offset" />
          </mxGeometry>
        </mxCell>
        <mxCell id="ulSbq7-TPYftb54rdm0L-84" value="Trạng thái" style="ellipse;whiteSpace=wrap;html=1;align=center;fillColor=#d5e8d4;strokeColor=#82b366;" parent="1" vertex="1">
          <mxGeometry x="480" y="550" width="100" height="40" as="geometry" />
        </mxCell>
        <mxCell id="ulSbq7-TPYftb54rdm0L-85" value="Ngưỡng dưới" style="ellipse;whiteSpace=wrap;html=1;align=center;fillColor=#d5e8d4;strokeColor=#82b366;" parent="1" vertex="1">
          <mxGeometry x="560" y="605" width="100" height="40" as="geometry" />
        </mxCell>
        <mxCell id="ulSbq7-TPYftb54rdm0L-86" value="Ngưỡng trên" style="ellipse;whiteSpace=wrap;html=1;align=center;fillColor=#d5e8d4;strokeColor=#82b366;" parent="1" vertex="1">
          <mxGeometry x="420" y="490" width="100" height="40" as="geometry" />
        </mxCell>
        <mxCell id="ulSbq7-TPYftb54rdm0L-87" value="" style="endArrow=none;html=1;rounded=0;" parent="1" source="ulSbq7-TPYftb54rdm0L-86" target="ulSbq7-TPYftb54rdm0L-55" edge="1">
          <mxGeometry width="50" height="50" relative="1" as="geometry">
            <mxPoint x="222" y="394" as="sourcePoint" />
            <mxPoint x="316" y="435" as="targetPoint" />
          </mxGeometry>
        </mxCell>
        <mxCell id="ulSbq7-TPYftb54rdm0L-88" value="" style="endArrow=none;html=1;rounded=0;" parent="1" source="ulSbq7-TPYftb54rdm0L-84" target="ulSbq7-TPYftb54rdm0L-55" edge="1">
          <mxGeometry width="50" height="50" relative="1" as="geometry">
            <mxPoint x="515" y="506" as="sourcePoint" />
            <mxPoint x="567" y="484" as="targetPoint" />
          </mxGeometry>
        </mxCell>
        <mxCell id="ulSbq7-TPYftb54rdm0L-89" value="" style="endArrow=none;html=1;rounded=0;" parent="1" source="ulSbq7-TPYftb54rdm0L-85" target="ulSbq7-TPYftb54rdm0L-55" edge="1">
          <mxGeometry width="50" height="50" relative="1" as="geometry">
            <mxPoint x="600" y="565" as="sourcePoint" />
            <mxPoint x="600" y="500" as="targetPoint" />
          </mxGeometry>
        </mxCell>
        <mxCell id="ulSbq7-TPYftb54rdm0L-90" value="" style="endArrow=none;html=1;rounded=0;" parent="1" source="g2_H-QGqGs-jdcmZxHJL-1" target="ulSbq7-TPYftb54rdm0L-91" edge="1">
          <mxGeometry width="50" height="50" relative="1" as="geometry">
            <mxPoint x="215" y="397" as="sourcePoint" />
            <mxPoint x="330" y="410" as="targetPoint" />
          </mxGeometry>
        </mxCell>
        <mxCell id="ulSbq7-TPYftb54rdm0L-91" value="Thời gian" style="ellipse;whiteSpace=wrap;html=1;align=center;fillColor=#d5e8d4;strokeColor=#82b366;" parent="1" vertex="1">
          <mxGeometry x="314" y="400" width="100" height="40" as="geometry" />
        </mxCell>
        <mxCell id="ulSbq7-TPYftb54rdm0L-92" value="Thời gian" style="ellipse;whiteSpace=wrap;html=1;align=center;fillColor=#d5e8d4;strokeColor=#82b366;" parent="1" vertex="1">
          <mxGeometry x="610" y="530" width="100" height="40" as="geometry" />
        </mxCell>
        <mxCell id="ulSbq7-TPYftb54rdm0L-93" value="" style="endArrow=none;html=1;rounded=0;" parent="1" source="ulSbq7-TPYftb54rdm0L-92" target="ulSbq7-TPYftb54rdm0L-55" edge="1">
          <mxGeometry width="50" height="50" relative="1" as="geometry">
            <mxPoint x="618" y="615" as="sourcePoint" />
            <mxPoint x="603" y="498" as="targetPoint" />
          </mxGeometry>
        </mxCell>
        <mxCell id="ulSbq7-TPYftb54rdm0L-94" value="" style="endArrow=none;html=1;rounded=0;" parent="1" source="ulSbq7-TPYftb54rdm0L-95" target="g2_H-QGqGs-jdcmZxHJL-1" edge="1">
          <mxGeometry width="50" height="50" relative="1" as="geometry">
            <mxPoint x="183" y="406" as="sourcePoint" />
            <mxPoint x="165" y="470" as="targetPoint" />
          </mxGeometry>
        </mxCell>
        <mxCell id="ulSbq7-TPYftb54rdm0L-95" value="Hẹn giờ" style="ellipse;whiteSpace=wrap;html=1;align=center;fillColor=#d5e8d4;strokeColor=#82b366;" parent="1" vertex="1">
          <mxGeometry x="60" y="270" width="100" height="40" as="geometry" />
        </mxCell>
        <mxCell id="ulSbq7-TPYftb54rdm0L-96" value="Giờ kết thúc" style="ellipse;whiteSpace=wrap;html=1;align=center;fillColor=#d5e8d4;strokeColor=#82b366;" parent="1" vertex="1">
          <mxGeometry x="-70" y="240" width="100" height="40" as="geometry" />
        </mxCell>
        <mxCell id="ulSbq7-TPYftb54rdm0L-97" value="Giờ bắt đầu" style="ellipse;whiteSpace=wrap;html=1;align=center;fillColor=#d5e8d4;strokeColor=#82b366;" parent="1" vertex="1">
          <mxGeometry x="40" y="190" width="100" height="40" as="geometry" />
        </mxCell>
        <mxCell id="ulSbq7-TPYftb54rdm0L-98" value="" style="endArrow=none;html=1;rounded=0;" parent="1" source="ulSbq7-TPYftb54rdm0L-97" target="ulSbq7-TPYftb54rdm0L-95" edge="1">
          <mxGeometry width="50" height="50" relative="1" as="geometry">
            <mxPoint x="141" y="356" as="sourcePoint" />
            <mxPoint x="160" y="365" as="targetPoint" />
          </mxGeometry>
        </mxCell>
        <mxCell id="ulSbq7-TPYftb54rdm0L-99" value="" style="endArrow=none;html=1;rounded=0;" parent="1" source="ulSbq7-TPYftb54rdm0L-96" target="ulSbq7-TPYftb54rdm0L-95" edge="1">
          <mxGeometry width="50" height="50" relative="1" as="geometry">
            <mxPoint x="102" y="240" as="sourcePoint" />
            <mxPoint x="108" y="320" as="targetPoint" />
          </mxGeometry>
        </mxCell>
        <mxCell id="3VqJs9Ran4Hn63_7oBxK-1" value="" style="endArrow=none;html=1;rounded=0;" parent="1" source="3VqJs9Ran4Hn63_7oBxK-2" target="g2_H-QGqGs-jdcmZxHJL-1" edge="1">
          <mxGeometry width="50" height="50" relative="1" as="geometry">
            <mxPoint x="60" y="330" as="sourcePoint" />
            <mxPoint x="172" y="359" as="targetPoint" />
          </mxGeometry>
        </mxCell>
        <mxCell id="3VqJs9Ran4Hn63_7oBxK-2" value="Mã" style="ellipse;whiteSpace=wrap;html=1;align=center;fillColor=#d5e8d4;strokeColor=#82b366;" parent="1" vertex="1">
          <mxGeometry x="-30" y="310" width="100" height="40" as="geometry" />
        </mxCell>
        <mxCell id="3VqJs9Ran4Hn63_7oBxK-3" value="" style="endArrow=none;html=1;rounded=0;" parent="1" source="3VqJs9Ran4Hn63_7oBxK-4" target="ulSbq7-TPYftb54rdm0L-37" edge="1">
          <mxGeometry width="50" height="50" relative="1" as="geometry">
            <mxPoint x="-590" y="500" as="sourcePoint" />
            <mxPoint x="-510" y="530" as="targetPoint" />
          </mxGeometry>
        </mxCell>
        <mxCell id="3VqJs9Ran4Hn63_7oBxK-4" value="Mã" style="ellipse;whiteSpace=wrap;html=1;align=center;fillColor=#d5e8d4;strokeColor=#82b366;" parent="1" vertex="1">
          <mxGeometry x="-610" y="525" width="100" height="40" as="geometry" />
        </mxCell>
        <mxCell id="3VqJs9Ran4Hn63_7oBxK-5" value="" style="endArrow=none;html=1;rounded=0;" parent="1" source="3VqJs9Ran4Hn63_7oBxK-6" target="ulSbq7-TPYftb54rdm0L-22" edge="1">
          <mxGeometry width="50" height="50" relative="1" as="geometry">
            <mxPoint x="1329.82" y="565" as="sourcePoint" />
            <mxPoint x="1300.001818181818" y="727.5" as="targetPoint" />
          </mxGeometry>
        </mxCell>
        <mxCell id="3VqJs9Ran4Hn63_7oBxK-6" value="Mã" style="ellipse;whiteSpace=wrap;html=1;align=center;fillColor=#d5e8d4;strokeColor=#82b366;" parent="1" vertex="1">
          <mxGeometry x="1309.82" y="590" width="100" height="40" as="geometry" />
        </mxCell>
        <mxCell id="3VqJs9Ran4Hn63_7oBxK-7" value="" style="endArrow=none;html=1;rounded=0;" parent="1" source="3VqJs9Ran4Hn63_7oBxK-8" target="ulSbq7-TPYftb54rdm0L-55" edge="1">
          <mxGeometry width="50" height="50" relative="1" as="geometry">
            <mxPoint x="734.8199999999999" y="380" as="sourcePoint" />
            <mxPoint x="700" y="510" as="targetPoint" />
          </mxGeometry>
        </mxCell>
        <mxCell id="3VqJs9Ran4Hn63_7oBxK-8" value="Mã" style="ellipse;whiteSpace=wrap;html=1;align=center;fillColor=#d5e8d4;strokeColor=#82b366;" parent="1" vertex="1">
          <mxGeometry x="714.8199999999999" y="405" width="100" height="40" as="geometry" />
        </mxCell>
        <mxCell id="yMiCzRJkpgtj-4cznh63-1" value="" style="endArrow=none;html=1;rounded=0;" edge="1" parent="1" target="yMiCzRJkpgtj-4cznh63-2" source="Jqu8XaU1EDlUcJZMT5x3-20">
          <mxGeometry width="50" height="50" relative="1" as="geometry">
            <mxPoint x="722.9955555555557" y="855" as="sourcePoint" />
            <mxPoint x="837.44" y="1245" as="targetPoint" />
          </mxGeometry>
        </mxCell>
        <mxCell id="yMiCzRJkpgtj-4cznh63-2" value="Tên" style="ellipse;whiteSpace=wrap;html=1;align=center;fillColor=#d5e8d4;strokeColor=#82b366;" vertex="1" parent="1">
          <mxGeometry x="727.44" y="905" width="100" height="40" as="geometry" />
        </mxCell>
        <mxCell id="yMiCzRJkpgtj-4cznh63-3" value="" style="endArrow=none;html=1;rounded=0;" edge="1" parent="1" target="yMiCzRJkpgtj-4cznh63-4" source="Jqu8XaU1EDlUcJZMT5x3-11">
          <mxGeometry width="50" height="50" relative="1" as="geometry">
            <mxPoint x="929.56" y="900" as="sourcePoint" />
            <mxPoint x="980" y="1275" as="targetPoint" />
          </mxGeometry>
        </mxCell>
        <mxCell id="yMiCzRJkpgtj-4cznh63-4" value="Tên" style="ellipse;whiteSpace=wrap;html=1;align=center;fillColor=#d5e8d4;strokeColor=#82b366;" vertex="1" parent="1">
          <mxGeometry x="870" y="935" width="100" height="40" as="geometry" />
        </mxCell>
        <mxCell id="yMiCzRJkpgtj-4cznh63-5" value="" style="endArrow=none;html=1;rounded=0;" edge="1" parent="1" target="yMiCzRJkpgtj-4cznh63-6" source="Jqu8XaU1EDlUcJZMT5x3-10">
          <mxGeometry width="50" height="50" relative="1" as="geometry">
            <mxPoint x="1069.56" y="887.5" as="sourcePoint" />
            <mxPoint x="1120" y="1262.5" as="targetPoint" />
          </mxGeometry>
        </mxCell>
        <mxCell id="yMiCzRJkpgtj-4cznh63-6" value="Tên" style="ellipse;whiteSpace=wrap;html=1;align=center;fillColor=#d5e8d4;strokeColor=#82b366;" vertex="1" parent="1">
          <mxGeometry x="1010" y="922.5" width="100" height="40" as="geometry" />
        </mxCell>
        <mxCell id="yMiCzRJkpgtj-4cznh63-7" value="" style="endArrow=none;html=1;rounded=0;" edge="1" parent="1" target="yMiCzRJkpgtj-4cznh63-8" source="Jqu8XaU1EDlUcJZMT5x3-4">
          <mxGeometry width="50" height="50" relative="1" as="geometry">
            <mxPoint x="-300.44000000000005" y="830" as="sourcePoint" />
            <mxPoint x="-250" y="1205" as="targetPoint" />
          </mxGeometry>
        </mxCell>
        <mxCell id="yMiCzRJkpgtj-4cznh63-8" value="Tên" style="ellipse;whiteSpace=wrap;html=1;align=center;fillColor=#d5e8d4;strokeColor=#82b366;" vertex="1" parent="1">
          <mxGeometry x="-330" y="820" width="100" height="40" as="geometry" />
        </mxCell>
        <mxCell id="yMiCzRJkpgtj-4cznh63-9" value="" style="endArrow=none;html=1;rounded=0;" edge="1" parent="1" target="yMiCzRJkpgtj-4cznh63-10" source="Jqu8XaU1EDlUcJZMT5x3-3">
          <mxGeometry width="50" height="50" relative="1" as="geometry">
            <mxPoint x="-125.44000000000005" y="830" as="sourcePoint" />
            <mxPoint x="-75" y="1205" as="targetPoint" />
          </mxGeometry>
        </mxCell>
        <mxCell id="yMiCzRJkpgtj-4cznh63-10" value="Tên" style="ellipse;whiteSpace=wrap;html=1;align=center;fillColor=#d5e8d4;strokeColor=#82b366;" vertex="1" parent="1">
          <mxGeometry x="-185" y="840" width="100" height="40" as="geometry" />
        </mxCell>
        <mxCell id="yMiCzRJkpgtj-4cznh63-11" value="" style="endArrow=none;html=1;rounded=0;" edge="1" parent="1" target="yMiCzRJkpgtj-4cznh63-12" source="Jqu8XaU1EDlUcJZMT5x3-16">
          <mxGeometry width="50" height="50" relative="1" as="geometry">
            <mxPoint x="19.559999999999945" y="830" as="sourcePoint" />
            <mxPoint x="70" y="1205" as="targetPoint" />
          </mxGeometry>
        </mxCell>
        <mxCell id="yMiCzRJkpgtj-4cznh63-12" value="Tên" style="ellipse;whiteSpace=wrap;html=1;align=center;fillColor=#d5e8d4;strokeColor=#82b366;" vertex="1" parent="1">
          <mxGeometry x="-40" y="840" width="100" height="40" as="geometry" />
        </mxCell>
      </root>
    </mxGraphModel>
  </diagram>
  <diagram name="Trang-1" id="hW81lLVwI4sHf8qO7cbq">
    <mxGraphModel dx="3185" dy="1268" grid="1" gridSize="10" guides="1" tooltips="1" connect="1" arrows="1" fold="1" page="1" pageScale="1" pageWidth="827" pageHeight="1169" math="0" shadow="0">
      <root>
        <mxCell id="0" />
        <mxCell id="1" parent="0" />
        <mxCell id="hNdYB89izZhHOhHL3cF5-1" value="" style="rounded=0;whiteSpace=wrap;html=1;" parent="1" vertex="1">
          <mxGeometry x="100" y="460" width="120" height="60" as="geometry" />
        </mxCell>
        <mxCell id="hNdYB89izZhHOhHL3cF5-2" value="User" style="text;html=1;strokeColor=none;fillColor=none;align=center;verticalAlign=middle;whiteSpace=wrap;rounded=0;" parent="1" vertex="1">
          <mxGeometry x="130" y="475" width="60" height="30" as="geometry" />
        </mxCell>
        <mxCell id="hNdYB89izZhHOhHL3cF5-3" value="" style="endArrow=none;html=1;rounded=0;exitX=1;exitY=0.5;exitDx=0;exitDy=0;entryX=0;entryY=0.5;entryDx=0;entryDy=0;" parent="1" source="hNdYB89izZhHOhHL3cF5-1" target="hNdYB89izZhHOhHL3cF5-4" edge="1">
          <mxGeometry width="50" height="50" relative="1" as="geometry">
            <mxPoint x="390" y="520" as="sourcePoint" />
            <mxPoint x="280" y="440" as="targetPoint" />
          </mxGeometry>
        </mxCell>
        <mxCell id="hNdYB89izZhHOhHL3cF5-4" value="" style="rhombus;whiteSpace=wrap;html=1;" parent="1" vertex="1">
          <mxGeometry x="400" y="395" width="80" height="80" as="geometry" />
        </mxCell>
        <mxCell id="hNdYB89izZhHOhHL3cF5-5" value="" style="rhombus;whiteSpace=wrap;html=1;" parent="1" vertex="1">
          <mxGeometry x="400" y="550" width="80" height="80" as="geometry" />
        </mxCell>
        <mxCell id="hNdYB89izZhHOhHL3cF5-6" value="" style="endArrow=none;html=1;rounded=0;exitX=1;exitY=0.5;exitDx=0;exitDy=0;entryX=0;entryY=0.5;entryDx=0;entryDy=0;" parent="1" source="hNdYB89izZhHOhHL3cF5-1" target="hNdYB89izZhHOhHL3cF5-5" edge="1">
          <mxGeometry width="50" height="50" relative="1" as="geometry">
            <mxPoint x="390" y="520" as="sourcePoint" />
            <mxPoint x="440" y="470" as="targetPoint" />
          </mxGeometry>
        </mxCell>
        <mxCell id="hNdYB89izZhHOhHL3cF5-7" value="" style="rounded=0;whiteSpace=wrap;html=1;" parent="1" vertex="1">
          <mxGeometry x="660" y="350" width="120" height="60" as="geometry" />
        </mxCell>
        <mxCell id="hNdYB89izZhHOhHL3cF5-8" value="" style="rounded=0;whiteSpace=wrap;html=1;" parent="1" vertex="1">
          <mxGeometry x="670" y="590" width="120" height="60" as="geometry" />
        </mxCell>
        <mxCell id="hNdYB89izZhHOhHL3cF5-9" value="" style="endArrow=none;html=1;rounded=0;entryX=0;entryY=0.5;entryDx=0;entryDy=0;exitX=1;exitY=0.5;exitDx=0;exitDy=0;" parent="1" source="hNdYB89izZhHOhHL3cF5-4" target="hNdYB89izZhHOhHL3cF5-7" edge="1">
          <mxGeometry width="50" height="50" relative="1" as="geometry">
            <mxPoint x="390" y="520" as="sourcePoint" />
            <mxPoint x="440" y="470" as="targetPoint" />
          </mxGeometry>
        </mxCell>
        <mxCell id="hNdYB89izZhHOhHL3cF5-10" value="" style="endArrow=none;html=1;rounded=0;exitX=1;exitY=0.5;exitDx=0;exitDy=0;entryX=0;entryY=0.5;entryDx=0;entryDy=0;" parent="1" source="hNdYB89izZhHOhHL3cF5-5" target="hNdYB89izZhHOhHL3cF5-8" edge="1">
          <mxGeometry width="50" height="50" relative="1" as="geometry">
            <mxPoint x="390" y="520" as="sourcePoint" />
            <mxPoint x="440" y="470" as="targetPoint" />
          </mxGeometry>
        </mxCell>
        <mxCell id="hNdYB89izZhHOhHL3cF5-11" value="" style="endArrow=none;html=1;rounded=0;entryX=0;entryY=0.5;entryDx=0;entryDy=0;exitX=1;exitY=0.5;exitDx=0;exitDy=0;" parent="1" source="hNdYB89izZhHOhHL3cF5-5" target="hNdYB89izZhHOhHL3cF5-7" edge="1">
          <mxGeometry width="50" height="50" relative="1" as="geometry">
            <mxPoint x="390" y="520" as="sourcePoint" />
            <mxPoint x="440" y="470" as="targetPoint" />
          </mxGeometry>
        </mxCell>
        <mxCell id="hNdYB89izZhHOhHL3cF5-12" value="" style="endArrow=none;html=1;rounded=0;exitX=1;exitY=0.5;exitDx=0;exitDy=0;entryX=0;entryY=0.5;entryDx=0;entryDy=0;" parent="1" source="hNdYB89izZhHOhHL3cF5-4" target="hNdYB89izZhHOhHL3cF5-8" edge="1">
          <mxGeometry width="50" height="50" relative="1" as="geometry">
            <mxPoint x="390" y="520" as="sourcePoint" />
            <mxPoint x="530" y="620" as="targetPoint" />
          </mxGeometry>
        </mxCell>
        <mxCell id="hNdYB89izZhHOhHL3cF5-14" value="M" style="text;html=1;strokeColor=none;fillColor=none;align=center;verticalAlign=middle;whiteSpace=wrap;rounded=0;" parent="1" vertex="1">
          <mxGeometry x="250" y="430" width="60" height="30" as="geometry" />
        </mxCell>
        <mxCell id="hNdYB89izZhHOhHL3cF5-15" value="M" style="text;html=1;strokeColor=none;fillColor=none;align=center;verticalAlign=middle;whiteSpace=wrap;rounded=0;" parent="1" vertex="1">
          <mxGeometry x="270" y="505" width="60" height="30" as="geometry" />
        </mxCell>
        <mxCell id="hNdYB89izZhHOhHL3cF5-16" value="Thiết bị" style="text;html=1;strokeColor=none;fillColor=none;align=center;verticalAlign=middle;whiteSpace=wrap;rounded=0;" parent="1" vertex="1">
          <mxGeometry x="690" y="365" width="60" height="30" as="geometry" />
        </mxCell>
        <mxCell id="hNdYB89izZhHOhHL3cF5-17" value="Cảm biến" style="text;html=1;strokeColor=none;fillColor=none;align=center;verticalAlign=middle;whiteSpace=wrap;rounded=0;" parent="1" vertex="1">
          <mxGeometry x="700" y="605" width="60" height="30" as="geometry" />
        </mxCell>
        <mxCell id="hNdYB89izZhHOhHL3cF5-18" value="N" style="text;html=1;strokeColor=none;fillColor=none;align=center;verticalAlign=middle;whiteSpace=wrap;rounded=0;" parent="1" vertex="1">
          <mxGeometry x="580" y="630" width="60" height="30" as="geometry" />
        </mxCell>
        <mxCell id="hNdYB89izZhHOhHL3cF5-19" value="N" style="text;html=1;strokeColor=none;fillColor=none;align=center;verticalAlign=middle;whiteSpace=wrap;rounded=0;" parent="1" vertex="1">
          <mxGeometry x="610" y="550" width="60" height="30" as="geometry" />
        </mxCell>
        <mxCell id="hNdYB89izZhHOhHL3cF5-20" value="N" style="text;html=1;strokeColor=none;fillColor=none;align=center;verticalAlign=middle;whiteSpace=wrap;rounded=0;" parent="1" vertex="1">
          <mxGeometry x="550" y="365" width="60" height="30" as="geometry" />
        </mxCell>
        <mxCell id="hNdYB89izZhHOhHL3cF5-21" value="N" style="text;html=1;strokeColor=none;fillColor=none;align=center;verticalAlign=middle;whiteSpace=wrap;rounded=0;" parent="1" vertex="1">
          <mxGeometry x="570" y="410" width="60" height="30" as="geometry" />
        </mxCell>
        <mxCell id="hNdYB89izZhHOhHL3cF5-22" value="xem" style="text;html=1;strokeColor=none;fillColor=none;align=center;verticalAlign=middle;whiteSpace=wrap;rounded=0;" parent="1" vertex="1">
          <mxGeometry x="414" y="420" width="60" height="30" as="geometry" />
        </mxCell>
        <mxCell id="hNdYB89izZhHOhHL3cF5-23" value="Thiết lập" style="text;html=1;strokeColor=none;fillColor=none;align=center;verticalAlign=middle;whiteSpace=wrap;rounded=0;" parent="1" vertex="1">
          <mxGeometry x="410" y="575" width="60" height="30" as="geometry" />
        </mxCell>
        <mxCell id="hNdYB89izZhHOhHL3cF5-26" value="Ngày sinh" style="ellipse;whiteSpace=wrap;html=1;aspect=fixed;" parent="1" vertex="1">
          <mxGeometry x="-20" y="350" width="80" height="80" as="geometry" />
        </mxCell>
        <mxCell id="hNdYB89izZhHOhHL3cF5-27" value="" style="ellipse;whiteSpace=wrap;html=1;aspect=fixed;" parent="1" vertex="1">
          <mxGeometry x="80" y="325" width="80" height="80" as="geometry" />
        </mxCell>
        <mxCell id="hNdYB89izZhHOhHL3cF5-28" value="Họ tên" style="ellipse;whiteSpace=wrap;html=1;aspect=fixed;" parent="1" vertex="1">
          <mxGeometry x="190" y="330" width="80" height="80" as="geometry" />
        </mxCell>
        <mxCell id="hNdYB89izZhHOhHL3cF5-29" value="giới tính" style="ellipse;whiteSpace=wrap;html=1;aspect=fixed;" parent="1" vertex="1">
          <mxGeometry x="220" y="570" width="80" height="80" as="geometry" />
        </mxCell>
        <mxCell id="hNdYB89izZhHOhHL3cF5-30" value="Tên tài khoản" style="ellipse;whiteSpace=wrap;html=1;" parent="1" vertex="1">
          <mxGeometry x="285" y="350" width="80" height="80" as="geometry" />
        </mxCell>
        <mxCell id="hNdYB89izZhHOhHL3cF5-31" value="Email" style="ellipse;whiteSpace=wrap;html=1;aspect=fixed;" parent="1" vertex="1">
          <mxGeometry x="30" y="600" width="80" height="80" as="geometry" />
        </mxCell>
        <mxCell id="hNdYB89izZhHOhHL3cF5-32" value="Số căn cước&lt;br&gt;công dân" style="ellipse;whiteSpace=wrap;html=1;aspect=fixed;" parent="1" vertex="1">
          <mxGeometry x="-60" y="430" width="80" height="80" as="geometry" />
        </mxCell>
        <mxCell id="hNdYB89izZhHOhHL3cF5-33" value="số điện thoại" style="ellipse;whiteSpace=wrap;html=1;aspect=fixed;" parent="1" vertex="1">
          <mxGeometry x="-50" y="520" width="80" height="80" as="geometry" />
        </mxCell>
        <mxCell id="hNdYB89izZhHOhHL3cF5-34" value="" style="endArrow=none;html=1;rounded=0;exitX=1;exitY=1;exitDx=0;exitDy=0;entryX=0;entryY=0;entryDx=0;entryDy=0;" parent="1" source="hNdYB89izZhHOhHL3cF5-26" target="hNdYB89izZhHOhHL3cF5-1" edge="1">
          <mxGeometry width="50" height="50" relative="1" as="geometry">
            <mxPoint x="390" y="520" as="sourcePoint" />
            <mxPoint x="440" y="470" as="targetPoint" />
          </mxGeometry>
        </mxCell>
        <mxCell id="hNdYB89izZhHOhHL3cF5-35" value="" style="endArrow=none;html=1;rounded=0;exitX=0.438;exitY=0.02;exitDx=0;exitDy=0;exitPerimeter=0;entryX=0.668;entryY=0.992;entryDx=0;entryDy=0;entryPerimeter=0;" parent="1" source="hNdYB89izZhHOhHL3cF5-1" target="hNdYB89izZhHOhHL3cF5-27" edge="1">
          <mxGeometry width="50" height="50" relative="1" as="geometry">
            <mxPoint x="390" y="520" as="sourcePoint" />
            <mxPoint x="440" y="470" as="targetPoint" />
          </mxGeometry>
        </mxCell>
        <mxCell id="hNdYB89izZhHOhHL3cF5-37" value="" style="endArrow=none;html=1;rounded=0;exitX=0.978;exitY=0.63;exitDx=0;exitDy=0;exitPerimeter=0;" parent="1" source="hNdYB89izZhHOhHL3cF5-32" edge="1">
          <mxGeometry width="50" height="50" relative="1" as="geometry">
            <mxPoint x="390" y="520" as="sourcePoint" />
            <mxPoint x="100" y="480" as="targetPoint" />
          </mxGeometry>
        </mxCell>
        <mxCell id="hNdYB89izZhHOhHL3cF5-38" value="" style="endArrow=none;html=1;rounded=0;exitX=0.983;exitY=0.335;exitDx=0;exitDy=0;exitPerimeter=0;entryX=0;entryY=1;entryDx=0;entryDy=0;" parent="1" source="hNdYB89izZhHOhHL3cF5-33" target="hNdYB89izZhHOhHL3cF5-1" edge="1">
          <mxGeometry width="50" height="50" relative="1" as="geometry">
            <mxPoint x="390" y="520" as="sourcePoint" />
            <mxPoint x="440" y="470" as="targetPoint" />
          </mxGeometry>
        </mxCell>
        <mxCell id="hNdYB89izZhHOhHL3cF5-39" value="" style="endArrow=none;html=1;rounded=0;exitX=0.643;exitY=0.015;exitDx=0;exitDy=0;exitPerimeter=0;entryX=0.25;entryY=1;entryDx=0;entryDy=0;" parent="1" source="hNdYB89izZhHOhHL3cF5-31" target="hNdYB89izZhHOhHL3cF5-1" edge="1">
          <mxGeometry width="50" height="50" relative="1" as="geometry">
            <mxPoint x="390" y="520" as="sourcePoint" />
            <mxPoint x="440" y="470" as="targetPoint" />
          </mxGeometry>
        </mxCell>
        <mxCell id="hNdYB89izZhHOhHL3cF5-40" value="" style="endArrow=none;html=1;rounded=0;exitX=0.065;exitY=0.79;exitDx=0;exitDy=0;exitPerimeter=0;" parent="1" source="hNdYB89izZhHOhHL3cF5-30" edge="1">
          <mxGeometry width="50" height="50" relative="1" as="geometry">
            <mxPoint x="390" y="520" as="sourcePoint" />
            <mxPoint x="220" y="460" as="targetPoint" />
          </mxGeometry>
        </mxCell>
        <mxCell id="hNdYB89izZhHOhHL3cF5-41" value="" style="endArrow=none;html=1;rounded=0;exitX=0.378;exitY=0.04;exitDx=0;exitDy=0;exitPerimeter=0;entryX=0.75;entryY=1;entryDx=0;entryDy=0;" parent="1" source="hNdYB89izZhHOhHL3cF5-29" target="hNdYB89izZhHOhHL3cF5-1" edge="1">
          <mxGeometry width="50" height="50" relative="1" as="geometry">
            <mxPoint x="390" y="520" as="sourcePoint" />
            <mxPoint x="440" y="470" as="targetPoint" />
          </mxGeometry>
        </mxCell>
        <mxCell id="hNdYB89izZhHOhHL3cF5-43" value="" style="endArrow=none;html=1;rounded=0;entryX=0.263;entryY=1;entryDx=0;entryDy=0;entryPerimeter=0;" parent="1" target="hNdYB89izZhHOhHL3cF5-28" edge="1">
          <mxGeometry width="50" height="50" relative="1" as="geometry">
            <mxPoint x="180" y="460" as="sourcePoint" />
            <mxPoint x="440" y="470" as="targetPoint" />
          </mxGeometry>
        </mxCell>
        <mxCell id="hNdYB89izZhHOhHL3cF5-44" value="Mật khẩu" style="text;html=1;strokeColor=none;fillColor=none;align=center;verticalAlign=middle;whiteSpace=wrap;rounded=0;" parent="1" vertex="1">
          <mxGeometry x="90" y="350" width="60" height="30" as="geometry" />
        </mxCell>
        <mxCell id="hNdYB89izZhHOhHL3cF5-45" value="trạng thái hoạt động (ON/OFF)" style="ellipse;whiteSpace=wrap;html=1;aspect=fixed;" parent="1" vertex="1">
          <mxGeometry x="1250" y="305" width="90" height="90" as="geometry" />
        </mxCell>
        <mxCell id="hNdYB89izZhHOhHL3cF5-46" value="tên" style="ellipse;whiteSpace=wrap;html=1;aspect=fixed;" parent="1" vertex="1">
          <mxGeometry x="1270" y="200" width="80" height="80" as="geometry" />
        </mxCell>
        <mxCell id="hNdYB89izZhHOhHL3cF5-47" value="thời gian&lt;br&gt;ghi nhận" style="ellipse;whiteSpace=wrap;html=1;aspect=fixed;" parent="1" vertex="1">
          <mxGeometry x="1230" y="430" width="80" height="80" as="geometry" />
        </mxCell>
        <mxCell id="hNdYB89izZhHOhHL3cF5-50" value="Vị trí" style="ellipse;whiteSpace=wrap;html=1;aspect=fixed;" parent="1" vertex="1">
          <mxGeometry x="1040" y="1060" width="80" height="80" as="geometry" />
        </mxCell>
        <mxCell id="hNdYB89izZhHOhHL3cF5-57" value="trạng thái hoạt động (ON/OFF)" style="ellipse;whiteSpace=wrap;html=1;aspect=fixed;" parent="1" vertex="1">
          <mxGeometry x="1210" y="830" width="90" height="90" as="geometry" />
        </mxCell>
        <mxCell id="hNdYB89izZhHOhHL3cF5-59" value="thời gian&lt;br&gt;ghi nhận" style="ellipse;whiteSpace=wrap;html=1;aspect=fixed;" parent="1" vertex="1">
          <mxGeometry x="1161" y="1060" width="80" height="80" as="geometry" />
        </mxCell>
        <mxCell id="hNdYB89izZhHOhHL3cF5-60" value="" style="endArrow=none;html=1;rounded=0;exitX=0.5;exitY=0;exitDx=0;exitDy=0;" parent="1" source="hNdYB89izZhHOhHL3cF5-59" edge="1">
          <mxGeometry width="50" height="50" relative="1" as="geometry">
            <mxPoint x="540" y="600" as="sourcePoint" />
            <mxPoint x="1120" y="970" as="targetPoint" />
          </mxGeometry>
        </mxCell>
        <mxCell id="hNdYB89izZhHOhHL3cF5-62" value="" style="endArrow=none;html=1;rounded=0;exitX=0.375;exitY=0;exitDx=0;exitDy=0;exitPerimeter=0;entryX=0.572;entryY=0.997;entryDx=0;entryDy=0;entryPerimeter=0;" parent="1" source="hNdYB89izZhHOhHL3cF5-50" target="j5E1dJugW-yk9kZklkOu-74" edge="1">
          <mxGeometry width="50" height="50" relative="1" as="geometry">
            <mxPoint x="540" y="600" as="sourcePoint" />
            <mxPoint x="980" y="980" as="targetPoint" />
          </mxGeometry>
        </mxCell>
        <mxCell id="hNdYB89izZhHOhHL3cF5-63" value="" style="endArrow=none;html=1;rounded=0;entryX=-0.02;entryY=0.407;entryDx=0;entryDy=0;entryPerimeter=0;exitX=1;exitY=0;exitDx=0;exitDy=0;" parent="1" source="j5E1dJugW-yk9kZklkOu-73" target="hNdYB89izZhHOhHL3cF5-57" edge="1">
          <mxGeometry width="50" height="50" relative="1" as="geometry">
            <mxPoint x="540" y="600" as="sourcePoint" />
            <mxPoint x="590" y="550" as="targetPoint" />
          </mxGeometry>
        </mxCell>
        <mxCell id="j5E1dJugW-yk9kZklkOu-2" value="" style="rounded=0;whiteSpace=wrap;html=1;" parent="1" vertex="1">
          <mxGeometry x="135" y="865" width="120" height="60" as="geometry" />
        </mxCell>
        <mxCell id="j5E1dJugW-yk9kZklkOu-3" value="Admin" style="text;html=1;strokeColor=none;fillColor=none;align=center;verticalAlign=middle;whiteSpace=wrap;rounded=0;" parent="1" vertex="1">
          <mxGeometry x="165" y="880" width="60" height="30" as="geometry" />
        </mxCell>
        <mxCell id="j5E1dJugW-yk9kZklkOu-5" value="Ngày sinh" style="ellipse;whiteSpace=wrap;html=1;aspect=fixed;" parent="1" vertex="1">
          <mxGeometry x="15" y="755" width="80" height="80" as="geometry" />
        </mxCell>
        <mxCell id="j5E1dJugW-yk9kZklkOu-6" value="" style="ellipse;whiteSpace=wrap;html=1;aspect=fixed;" parent="1" vertex="1">
          <mxGeometry x="374" y="940" width="80" height="80" as="geometry" />
        </mxCell>
        <mxCell id="j5E1dJugW-yk9kZklkOu-7" value="Họ tên" style="ellipse;whiteSpace=wrap;html=1;aspect=fixed;" parent="1" vertex="1">
          <mxGeometry x="225" y="735" width="80" height="80" as="geometry" />
        </mxCell>
        <mxCell id="j5E1dJugW-yk9kZklkOu-8" value="giới tính" style="ellipse;whiteSpace=wrap;html=1;aspect=fixed;" parent="1" vertex="1">
          <mxGeometry x="255" y="975" width="80" height="80" as="geometry" />
        </mxCell>
        <mxCell id="j5E1dJugW-yk9kZklkOu-9" value="Tên tài khoản" style="ellipse;whiteSpace=wrap;html=1;" parent="1" vertex="1">
          <mxGeometry x="155" y="1015" width="80" height="80" as="geometry" />
        </mxCell>
        <mxCell id="j5E1dJugW-yk9kZklkOu-10" value="Email" style="ellipse;whiteSpace=wrap;html=1;aspect=fixed;" parent="1" vertex="1">
          <mxGeometry x="65" y="1005" width="80" height="80" as="geometry" />
        </mxCell>
        <mxCell id="j5E1dJugW-yk9kZklkOu-11" value="Số căn cước&lt;br&gt;công dân" style="ellipse;whiteSpace=wrap;html=1;aspect=fixed;" parent="1" vertex="1">
          <mxGeometry x="-25" y="835" width="80" height="80" as="geometry" />
        </mxCell>
        <mxCell id="j5E1dJugW-yk9kZklkOu-12" value="số điện thoại" style="ellipse;whiteSpace=wrap;html=1;aspect=fixed;" parent="1" vertex="1">
          <mxGeometry x="-15" y="925" width="80" height="80" as="geometry" />
        </mxCell>
        <mxCell id="j5E1dJugW-yk9kZklkOu-13" value="" style="endArrow=none;html=1;rounded=0;exitX=1;exitY=1;exitDx=0;exitDy=0;entryX=0;entryY=0;entryDx=0;entryDy=0;" parent="1" source="j5E1dJugW-yk9kZklkOu-5" target="j5E1dJugW-yk9kZklkOu-2" edge="1">
          <mxGeometry width="50" height="50" relative="1" as="geometry">
            <mxPoint x="425" y="925" as="sourcePoint" />
            <mxPoint x="475" y="875" as="targetPoint" />
          </mxGeometry>
        </mxCell>
        <mxCell id="j5E1dJugW-yk9kZklkOu-14" value="" style="endArrow=none;html=1;rounded=0;exitX=1;exitY=1;exitDx=0;exitDy=0;entryX=0.033;entryY=0.405;entryDx=0;entryDy=0;entryPerimeter=0;" parent="1" source="j5E1dJugW-yk9kZklkOu-2" target="j5E1dJugW-yk9kZklkOu-6" edge="1">
          <mxGeometry width="50" height="50" relative="1" as="geometry">
            <mxPoint x="425" y="925" as="sourcePoint" />
            <mxPoint x="370" y="970" as="targetPoint" />
          </mxGeometry>
        </mxCell>
        <mxCell id="j5E1dJugW-yk9kZklkOu-15" value="" style="endArrow=none;html=1;rounded=0;exitX=0.978;exitY=0.63;exitDx=0;exitDy=0;exitPerimeter=0;" parent="1" source="j5E1dJugW-yk9kZklkOu-11" edge="1">
          <mxGeometry width="50" height="50" relative="1" as="geometry">
            <mxPoint x="425" y="925" as="sourcePoint" />
            <mxPoint x="135" y="885" as="targetPoint" />
          </mxGeometry>
        </mxCell>
        <mxCell id="j5E1dJugW-yk9kZklkOu-16" value="" style="endArrow=none;html=1;rounded=0;exitX=0.983;exitY=0.335;exitDx=0;exitDy=0;exitPerimeter=0;entryX=0;entryY=1;entryDx=0;entryDy=0;" parent="1" source="j5E1dJugW-yk9kZklkOu-12" target="j5E1dJugW-yk9kZklkOu-2" edge="1">
          <mxGeometry width="50" height="50" relative="1" as="geometry">
            <mxPoint x="425" y="925" as="sourcePoint" />
            <mxPoint x="475" y="875" as="targetPoint" />
          </mxGeometry>
        </mxCell>
        <mxCell id="j5E1dJugW-yk9kZklkOu-17" value="" style="endArrow=none;html=1;rounded=0;exitX=0.643;exitY=0.015;exitDx=0;exitDy=0;exitPerimeter=0;entryX=0.25;entryY=1;entryDx=0;entryDy=0;" parent="1" source="j5E1dJugW-yk9kZklkOu-10" target="j5E1dJugW-yk9kZklkOu-2" edge="1">
          <mxGeometry width="50" height="50" relative="1" as="geometry">
            <mxPoint x="425" y="925" as="sourcePoint" />
            <mxPoint x="475" y="875" as="targetPoint" />
          </mxGeometry>
        </mxCell>
        <mxCell id="j5E1dJugW-yk9kZklkOu-18" value="" style="endArrow=none;html=1;rounded=0;exitX=0.5;exitY=0;exitDx=0;exitDy=0;entryX=0.5;entryY=1;entryDx=0;entryDy=0;" parent="1" source="j5E1dJugW-yk9kZklkOu-9" target="j5E1dJugW-yk9kZklkOu-2" edge="1">
          <mxGeometry width="50" height="50" relative="1" as="geometry">
            <mxPoint x="425" y="925" as="sourcePoint" />
            <mxPoint x="475" y="875" as="targetPoint" />
          </mxGeometry>
        </mxCell>
        <mxCell id="j5E1dJugW-yk9kZklkOu-19" value="" style="endArrow=none;html=1;rounded=0;exitX=0.378;exitY=0.04;exitDx=0;exitDy=0;exitPerimeter=0;entryX=0.75;entryY=1;entryDx=0;entryDy=0;" parent="1" source="j5E1dJugW-yk9kZklkOu-8" target="j5E1dJugW-yk9kZklkOu-2" edge="1">
          <mxGeometry width="50" height="50" relative="1" as="geometry">
            <mxPoint x="425" y="925" as="sourcePoint" />
            <mxPoint x="475" y="875" as="targetPoint" />
          </mxGeometry>
        </mxCell>
        <mxCell id="j5E1dJugW-yk9kZklkOu-20" value="" style="endArrow=none;html=1;rounded=0;entryX=0.275;entryY=0.958;entryDx=0;entryDy=0;entryPerimeter=0;" parent="1" target="j5E1dJugW-yk9kZklkOu-7" edge="1">
          <mxGeometry width="50" height="50" relative="1" as="geometry">
            <mxPoint x="215" y="865" as="sourcePoint" />
            <mxPoint x="475" y="875" as="targetPoint" />
          </mxGeometry>
        </mxCell>
        <mxCell id="j5E1dJugW-yk9kZklkOu-21" value="Mật khẩu" style="text;html=1;strokeColor=none;fillColor=none;align=center;verticalAlign=middle;whiteSpace=wrap;rounded=0;" parent="1" vertex="1">
          <mxGeometry x="384" y="965" width="60" height="30" as="geometry" />
        </mxCell>
        <mxCell id="j5E1dJugW-yk9kZklkOu-22" value="" style="endArrow=none;html=1;rounded=0;exitX=1;exitY=0.25;exitDx=0;exitDy=0;entryX=0.5;entryY=1;entryDx=0;entryDy=0;" parent="1" source="j5E1dJugW-yk9kZklkOu-2" target="hNdYB89izZhHOhHL3cF5-4" edge="1">
          <mxGeometry width="50" height="50" relative="1" as="geometry">
            <mxPoint x="450" y="820" as="sourcePoint" />
            <mxPoint x="440" y="480" as="targetPoint" />
            <Array as="points">
              <mxPoint x="360" y="880" />
              <mxPoint x="360" y="475" />
            </Array>
          </mxGeometry>
        </mxCell>
        <mxCell id="j5E1dJugW-yk9kZklkOu-23" value="" style="endArrow=none;html=1;rounded=0;exitX=1;exitY=0.75;exitDx=0;exitDy=0;entryX=0.5;entryY=1;entryDx=0;entryDy=0;" parent="1" source="j5E1dJugW-yk9kZklkOu-2" target="hNdYB89izZhHOhHL3cF5-5" edge="1">
          <mxGeometry width="50" height="50" relative="1" as="geometry">
            <mxPoint x="450" y="720" as="sourcePoint" />
            <mxPoint x="500" y="670" as="targetPoint" />
            <Array as="points">
              <mxPoint x="440" y="910" />
            </Array>
          </mxGeometry>
        </mxCell>
        <mxCell id="j5E1dJugW-yk9kZklkOu-24" value="1" style="text;html=1;align=center;verticalAlign=middle;resizable=0;points=[];autosize=1;strokeColor=none;fillColor=none;" parent="1" vertex="1">
          <mxGeometry x="255" y="855" width="30" height="30" as="geometry" />
        </mxCell>
        <mxCell id="j5E1dJugW-yk9kZklkOu-25" value="1" style="text;html=1;align=center;verticalAlign=middle;resizable=0;points=[];autosize=1;strokeColor=none;fillColor=none;" parent="1" vertex="1">
          <mxGeometry x="255" y="885" width="30" height="30" as="geometry" />
        </mxCell>
        <mxCell id="j5E1dJugW-yk9kZklkOu-27" value="xóa" style="rhombus;whiteSpace=wrap;html=1;" parent="1" vertex="1">
          <mxGeometry x="120" y="660" width="80" height="80" as="geometry" />
        </mxCell>
        <mxCell id="j5E1dJugW-yk9kZklkOu-28" value="" style="endArrow=none;html=1;rounded=0;exitX=0.5;exitY=0;exitDx=0;exitDy=0;entryX=0.5;entryY=1;entryDx=0;entryDy=0;" parent="1" source="j5E1dJugW-yk9kZklkOu-27" target="hNdYB89izZhHOhHL3cF5-1" edge="1">
          <mxGeometry width="50" height="50" relative="1" as="geometry">
            <mxPoint x="450" y="720" as="sourcePoint" />
            <mxPoint x="500" y="670" as="targetPoint" />
          </mxGeometry>
        </mxCell>
        <mxCell id="j5E1dJugW-yk9kZklkOu-29" value="" style="endArrow=none;html=1;rounded=0;entryX=0.5;entryY=1;entryDx=0;entryDy=0;" parent="1" target="j5E1dJugW-yk9kZklkOu-27" edge="1">
          <mxGeometry width="50" height="50" relative="1" as="geometry">
            <mxPoint x="160" y="860" as="sourcePoint" />
            <mxPoint x="500" y="670" as="targetPoint" />
          </mxGeometry>
        </mxCell>
        <mxCell id="j5E1dJugW-yk9kZklkOu-31" value="" style="endArrow=none;html=1;rounded=0;exitX=1;exitY=0.5;exitDx=0;exitDy=0;entryX=0;entryY=0.5;entryDx=0;entryDy=0;" parent="1" source="hNdYB89izZhHOhHL3cF5-7" target="CgNlCqr_a4x8uy1vyfc3-3" edge="1">
          <mxGeometry width="50" height="50" relative="1" as="geometry">
            <mxPoint x="820" y="420" as="sourcePoint" />
            <mxPoint x="827" y="380" as="targetPoint" />
          </mxGeometry>
        </mxCell>
        <mxCell id="j5E1dJugW-yk9kZklkOu-36" value="" style="endArrow=none;html=1;rounded=0;entryX=0;entryY=0.5;entryDx=0;entryDy=0;" parent="1" target="j5E1dJugW-yk9kZklkOu-38" edge="1">
          <mxGeometry width="50" height="50" relative="1" as="geometry">
            <mxPoint x="1030" y="380" as="sourcePoint" />
            <mxPoint x="870" y="470" as="targetPoint" />
          </mxGeometry>
        </mxCell>
        <mxCell id="j5E1dJugW-yk9kZklkOu-37" value="Cửa" style="rounded=0;whiteSpace=wrap;html=1;" parent="1" vertex="1">
          <mxGeometry x="1100" y="525" width="120" height="60" as="geometry" />
        </mxCell>
        <mxCell id="j5E1dJugW-yk9kZklkOu-38" value="Đèn" style="rounded=0;whiteSpace=wrap;html=1;" parent="1" vertex="1">
          <mxGeometry x="1100" y="350" width="120" height="60" as="geometry" />
        </mxCell>
        <mxCell id="j5E1dJugW-yk9kZklkOu-39" value="Quạt" style="rounded=0;whiteSpace=wrap;html=1;" parent="1" vertex="1">
          <mxGeometry x="1080" y="185" width="120" height="60" as="geometry" />
        </mxCell>
        <mxCell id="j5E1dJugW-yk9kZklkOu-42" value="tên" style="ellipse;whiteSpace=wrap;html=1;aspect=fixed;" parent="1" vertex="1">
          <mxGeometry x="1030" y="595" width="80" height="80" as="geometry" />
        </mxCell>
        <mxCell id="j5E1dJugW-yk9kZklkOu-43" value="tên" style="ellipse;whiteSpace=wrap;html=1;aspect=fixed;" parent="1" vertex="1">
          <mxGeometry x="1110" y="260" width="80" height="80" as="geometry" />
        </mxCell>
        <mxCell id="j5E1dJugW-yk9kZklkOu-44" value="trạng thái hoạt động (ON/OFF)" style="ellipse;whiteSpace=wrap;html=1;aspect=fixed;" parent="1" vertex="1">
          <mxGeometry x="1250" y="80" width="90" height="90" as="geometry" />
        </mxCell>
        <mxCell id="j5E1dJugW-yk9kZklkOu-45" value="trạng thái hoạt động (ON/OFF)" style="ellipse;whiteSpace=wrap;html=1;aspect=fixed;" parent="1" vertex="1">
          <mxGeometry x="1236" y="590" width="90" height="90" as="geometry" />
        </mxCell>
        <mxCell id="j5E1dJugW-yk9kZklkOu-46" value="thời gian&lt;br&gt;ghi nhận" style="ellipse;whiteSpace=wrap;html=1;aspect=fixed;" parent="1" vertex="1">
          <mxGeometry x="1156" y="50" width="80" height="80" as="geometry" />
        </mxCell>
        <mxCell id="j5E1dJugW-yk9kZklkOu-47" value="thời gian&lt;br&gt;ghi nhận" style="ellipse;whiteSpace=wrap;html=1;aspect=fixed;" parent="1" vertex="1">
          <mxGeometry x="1130" y="605" width="80" height="80" as="geometry" />
        </mxCell>
        <mxCell id="j5E1dJugW-yk9kZklkOu-48" value="Độ sáng" style="ellipse;whiteSpace=wrap;html=1;aspect=fixed;" parent="1" vertex="1">
          <mxGeometry x="1120" y="430" width="80" height="80" as="geometry" />
        </mxCell>
        <mxCell id="j5E1dJugW-yk9kZklkOu-49" value="Tốc độ" style="ellipse;whiteSpace=wrap;html=1;aspect=fixed;" parent="1" vertex="1">
          <mxGeometry x="1040" y="60" width="80" height="80" as="geometry" />
        </mxCell>
        <mxCell id="j5E1dJugW-yk9kZklkOu-57" value="" style="endArrow=none;html=1;rounded=0;entryX=0.5;entryY=1;entryDx=0;entryDy=0;exitX=0.402;exitY=0.003;exitDx=0;exitDy=0;exitPerimeter=0;" parent="1" source="j5E1dJugW-yk9kZklkOu-47" target="j5E1dJugW-yk9kZklkOu-37" edge="1">
          <mxGeometry width="50" height="50" relative="1" as="geometry">
            <mxPoint x="960" y="420" as="sourcePoint" />
            <mxPoint x="1010" y="370" as="targetPoint" />
          </mxGeometry>
        </mxCell>
        <mxCell id="j5E1dJugW-yk9kZklkOu-58" value="" style="endArrow=none;html=1;rounded=0;exitX=0.5;exitY=0;exitDx=0;exitDy=0;entryX=1;entryY=0.5;entryDx=0;entryDy=0;" parent="1" source="j5E1dJugW-yk9kZklkOu-45" target="j5E1dJugW-yk9kZklkOu-37" edge="1">
          <mxGeometry width="50" height="50" relative="1" as="geometry">
            <mxPoint x="960" y="420" as="sourcePoint" />
            <mxPoint x="1010" y="370" as="targetPoint" />
          </mxGeometry>
        </mxCell>
        <mxCell id="j5E1dJugW-yk9kZklkOu-59" value="" style="endArrow=none;html=1;rounded=0;entryX=0;entryY=1;entryDx=0;entryDy=0;exitX=0.702;exitY=0.018;exitDx=0;exitDy=0;exitPerimeter=0;" parent="1" source="j5E1dJugW-yk9kZklkOu-42" target="j5E1dJugW-yk9kZklkOu-37" edge="1">
          <mxGeometry width="50" height="50" relative="1" as="geometry">
            <mxPoint x="960" y="420" as="sourcePoint" />
            <mxPoint x="1010" y="370" as="targetPoint" />
          </mxGeometry>
        </mxCell>
        <mxCell id="j5E1dJugW-yk9kZklkOu-60" value="" style="endArrow=none;html=1;rounded=0;exitX=0.5;exitY=0;exitDx=0;exitDy=0;entryX=0.5;entryY=1;entryDx=0;entryDy=0;" parent="1" source="j5E1dJugW-yk9kZklkOu-48" target="j5E1dJugW-yk9kZklkOu-38" edge="1">
          <mxGeometry width="50" height="50" relative="1" as="geometry">
            <mxPoint x="960" y="420" as="sourcePoint" />
            <mxPoint x="1010" y="370" as="targetPoint" />
          </mxGeometry>
        </mxCell>
        <mxCell id="j5E1dJugW-yk9kZklkOu-61" value="" style="endArrow=none;html=1;rounded=0;entryX=0;entryY=0;entryDx=0;entryDy=0;exitX=0.812;exitY=1;exitDx=0;exitDy=0;exitPerimeter=0;" parent="1" source="j5E1dJugW-yk9kZklkOu-38" target="hNdYB89izZhHOhHL3cF5-47" edge="1">
          <mxGeometry width="50" height="50" relative="1" as="geometry">
            <mxPoint x="960" y="420" as="sourcePoint" />
            <mxPoint x="1010" y="370" as="targetPoint" />
          </mxGeometry>
        </mxCell>
        <mxCell id="j5E1dJugW-yk9kZklkOu-62" value="" style="endArrow=none;html=1;rounded=0;entryX=-0.007;entryY=0.642;entryDx=0;entryDy=0;entryPerimeter=0;" parent="1" target="hNdYB89izZhHOhHL3cF5-45" edge="1">
          <mxGeometry width="50" height="50" relative="1" as="geometry">
            <mxPoint x="1220" y="370" as="sourcePoint" />
            <mxPoint x="1010" y="370" as="targetPoint" />
          </mxGeometry>
        </mxCell>
        <mxCell id="j5E1dJugW-yk9kZklkOu-63" value="" style="endArrow=none;html=1;rounded=0;entryX=0;entryY=0.5;entryDx=0;entryDy=0;" parent="1" target="hNdYB89izZhHOhHL3cF5-46" edge="1">
          <mxGeometry width="50" height="50" relative="1" as="geometry">
            <mxPoint x="1200" y="240" as="sourcePoint" />
            <mxPoint x="1240" y="280" as="targetPoint" />
          </mxGeometry>
        </mxCell>
        <mxCell id="j5E1dJugW-yk9kZklkOu-64" value="" style="endArrow=none;html=1;rounded=0;entryX=0;entryY=1;entryDx=0;entryDy=0;exitX=1;exitY=0.25;exitDx=0;exitDy=0;" parent="1" source="j5E1dJugW-yk9kZklkOu-39" target="j5E1dJugW-yk9kZklkOu-44" edge="1">
          <mxGeometry width="50" height="50" relative="1" as="geometry">
            <mxPoint x="960" y="420" as="sourcePoint" />
            <mxPoint x="1010" y="370" as="targetPoint" />
          </mxGeometry>
        </mxCell>
        <mxCell id="j5E1dJugW-yk9kZklkOu-65" value="" style="endArrow=none;html=1;rounded=0;" parent="1" source="j5E1dJugW-yk9kZklkOu-39" edge="1">
          <mxGeometry width="50" height="50" relative="1" as="geometry">
            <mxPoint x="960" y="420" as="sourcePoint" />
            <mxPoint x="1180" y="190" as="targetPoint" />
          </mxGeometry>
        </mxCell>
        <mxCell id="j5E1dJugW-yk9kZklkOu-66" value="" style="endArrow=none;html=1;rounded=0;entryX=0.5;entryY=1;entryDx=0;entryDy=0;exitX=0;exitY=0;exitDx=0;exitDy=0;" parent="1" source="j5E1dJugW-yk9kZklkOu-39" target="j5E1dJugW-yk9kZklkOu-49" edge="1">
          <mxGeometry width="50" height="50" relative="1" as="geometry">
            <mxPoint x="960" y="420" as="sourcePoint" />
            <mxPoint x="1010" y="370" as="targetPoint" />
          </mxGeometry>
        </mxCell>
        <mxCell id="j5E1dJugW-yk9kZklkOu-67" value="" style="endArrow=none;html=1;rounded=0;entryX=0.5;entryY=1;entryDx=0;entryDy=0;" parent="1" target="j5E1dJugW-yk9kZklkOu-43" edge="1">
          <mxGeometry width="50" height="50" relative="1" as="geometry">
            <mxPoint x="1150" y="350" as="sourcePoint" />
            <mxPoint x="1010" y="370" as="targetPoint" />
          </mxGeometry>
        </mxCell>
        <mxCell id="j5E1dJugW-yk9kZklkOu-73" value="Cảm biến hồng ngoại" style="rounded=0;whiteSpace=wrap;html=1;" parent="1" vertex="1">
          <mxGeometry x="1050" y="915" width="120" height="60" as="geometry" />
        </mxCell>
        <mxCell id="j5E1dJugW-yk9kZklkOu-74" value="Cảm biến độ ẩm" style="rounded=0;whiteSpace=wrap;html=1;" parent="1" vertex="1">
          <mxGeometry x="880" y="915" width="120" height="60" as="geometry" />
        </mxCell>
        <mxCell id="j5E1dJugW-yk9kZklkOu-75" value="CẢm biến ánh sáng" style="rounded=0;whiteSpace=wrap;html=1;" parent="1" vertex="1">
          <mxGeometry x="730" y="915" width="120" height="60" as="geometry" />
        </mxCell>
        <mxCell id="j5E1dJugW-yk9kZklkOu-105" style="edgeStyle=orthogonalEdgeStyle;rounded=0;orthogonalLoop=1;jettySize=auto;html=1;exitX=0.5;exitY=1;exitDx=0;exitDy=0;" parent="1" source="j5E1dJugW-yk9kZklkOu-76" edge="1">
          <mxGeometry relative="1" as="geometry">
            <mxPoint x="610" y="965" as="targetPoint" />
          </mxGeometry>
        </mxCell>
        <mxCell id="j5E1dJugW-yk9kZklkOu-76" value="Cảm biến nhiệt độ" style="rounded=0;whiteSpace=wrap;html=1;" parent="1" vertex="1">
          <mxGeometry x="540" y="905" width="120" height="60" as="geometry" />
        </mxCell>
        <mxCell id="j5E1dJugW-yk9kZklkOu-79" value="Vị trí" style="ellipse;whiteSpace=wrap;html=1;aspect=fixed;" parent="1" vertex="1">
          <mxGeometry x="670" y="1070" width="80" height="80" as="geometry" />
        </mxCell>
        <mxCell id="j5E1dJugW-yk9kZklkOu-80" value="trạng thái hoạt động (ON/OFF)" style="ellipse;whiteSpace=wrap;html=1;aspect=fixed;" parent="1" vertex="1">
          <mxGeometry x="960" y="1110" width="90" height="90" as="geometry" />
        </mxCell>
        <mxCell id="j5E1dJugW-yk9kZklkOu-81" value="Độ ẩm &lt;br&gt;hiện tại" style="ellipse;whiteSpace=wrap;html=1;aspect=fixed;" parent="1" vertex="1">
          <mxGeometry x="880" y="1110" width="80" height="80" as="geometry" />
        </mxCell>
        <mxCell id="j5E1dJugW-yk9kZklkOu-82" value="" style="endArrow=none;html=1;rounded=0;exitX=0.5;exitY=0;exitDx=0;exitDy=0;entryX=0.572;entryY=1.05;entryDx=0;entryDy=0;entryPerimeter=0;" parent="1" source="j5E1dJugW-yk9kZklkOu-81" target="j5E1dJugW-yk9kZklkOu-74" edge="1">
          <mxGeometry width="50" height="50" relative="1" as="geometry">
            <mxPoint x="550" y="610" as="sourcePoint" />
            <mxPoint x="728" y="659" as="targetPoint" />
          </mxGeometry>
        </mxCell>
        <mxCell id="j5E1dJugW-yk9kZklkOu-84" value="" style="endArrow=none;html=1;rounded=0;exitX=0.375;exitY=0;exitDx=0;exitDy=0;exitPerimeter=0;" parent="1" source="j5E1dJugW-yk9kZklkOu-79" edge="1">
          <mxGeometry width="50" height="50" relative="1" as="geometry">
            <mxPoint x="550" y="610" as="sourcePoint" />
            <mxPoint x="800" y="970" as="targetPoint" />
          </mxGeometry>
        </mxCell>
        <mxCell id="j5E1dJugW-yk9kZklkOu-86" value="Vị trí" style="ellipse;whiteSpace=wrap;html=1;aspect=fixed;" parent="1" vertex="1">
          <mxGeometry x="1260" y="920" width="80" height="80" as="geometry" />
        </mxCell>
        <mxCell id="j5E1dJugW-yk9kZklkOu-87" value="trạng thái hoạt động (ON/OFF)" style="ellipse;whiteSpace=wrap;html=1;aspect=fixed;" parent="1" vertex="1">
          <mxGeometry x="820" y="1030" width="90" height="90" as="geometry" />
        </mxCell>
        <mxCell id="j5E1dJugW-yk9kZklkOu-91" value="" style="endArrow=none;html=1;rounded=0;exitX=0;exitY=0.5;exitDx=0;exitDy=0;entryX=1;entryY=0.75;entryDx=0;entryDy=0;" parent="1" source="j5E1dJugW-yk9kZklkOu-86" target="j5E1dJugW-yk9kZklkOu-73" edge="1">
          <mxGeometry width="50" height="50" relative="1" as="geometry">
            <mxPoint x="560" y="620" as="sourcePoint" />
            <mxPoint x="740" y="670" as="targetPoint" />
          </mxGeometry>
        </mxCell>
        <mxCell id="j5E1dJugW-yk9kZklkOu-92" value="Nhiệt độ hiện&amp;nbsp;&lt;br&gt;tại" style="ellipse;whiteSpace=wrap;html=1;aspect=fixed;" parent="1" vertex="1">
          <mxGeometry x="444" y="1015" width="80" height="80" as="geometry" />
        </mxCell>
        <mxCell id="j5E1dJugW-yk9kZklkOu-93" value="Vị trí" style="ellipse;whiteSpace=wrap;html=1;aspect=fixed;" parent="1" vertex="1">
          <mxGeometry x="530" y="1050" width="80" height="80" as="geometry" />
        </mxCell>
        <mxCell id="j5E1dJugW-yk9kZklkOu-94" value="trạng thái hoạt động (ON/OFF)" style="ellipse;whiteSpace=wrap;html=1;aspect=fixed;" parent="1" vertex="1">
          <mxGeometry x="610" y="990" width="90" height="90" as="geometry" />
        </mxCell>
        <mxCell id="j5E1dJugW-yk9kZklkOu-97" value="" style="endArrow=none;html=1;rounded=0;exitX=0.5;exitY=0;exitDx=0;exitDy=0;entryX=0.412;entryY=1.003;entryDx=0;entryDy=0;entryPerimeter=0;" parent="1" source="j5E1dJugW-yk9kZklkOu-92" target="j5E1dJugW-yk9kZklkOu-76" edge="1">
          <mxGeometry width="50" height="50" relative="1" as="geometry">
            <mxPoint x="430" y="926" as="sourcePoint" />
            <mxPoint x="600" y="970" as="targetPoint" />
          </mxGeometry>
        </mxCell>
        <mxCell id="j5E1dJugW-yk9kZklkOu-98" value="" style="endArrow=none;html=1;rounded=0;exitX=0.375;exitY=0;exitDx=0;exitDy=0;exitPerimeter=0;entryX=0.432;entryY=0.99;entryDx=0;entryDy=0;entryPerimeter=0;" parent="1" source="j5E1dJugW-yk9kZklkOu-93" target="j5E1dJugW-yk9kZklkOu-76" edge="1">
          <mxGeometry width="50" height="50" relative="1" as="geometry">
            <mxPoint x="430" y="926" as="sourcePoint" />
            <mxPoint x="590" y="970" as="targetPoint" />
          </mxGeometry>
        </mxCell>
        <mxCell id="j5E1dJugW-yk9kZklkOu-99" value="" style="endArrow=none;html=1;rounded=0;entryX=0.358;entryY=0.036;entryDx=0;entryDy=0;entryPerimeter=0;exitX=0.432;exitY=1.017;exitDx=0;exitDy=0;exitPerimeter=0;" parent="1" source="j5E1dJugW-yk9kZklkOu-76" target="j5E1dJugW-yk9kZklkOu-94" edge="1">
          <mxGeometry width="50" height="50" relative="1" as="geometry">
            <mxPoint x="600" y="970" as="sourcePoint" />
            <mxPoint x="770" y="800" as="targetPoint" />
          </mxGeometry>
        </mxCell>
        <mxCell id="j5E1dJugW-yk9kZklkOu-103" value="" style="endArrow=none;html=1;rounded=0;exitX=0.373;exitY=0.025;exitDx=0;exitDy=0;exitPerimeter=0;" parent="1" source="CgNlCqr_a4x8uy1vyfc3-9" edge="1">
          <mxGeometry width="50" height="50" relative="1" as="geometry">
            <mxPoint x="790" y="790" as="sourcePoint" />
            <mxPoint x="730" y="650" as="targetPoint" />
          </mxGeometry>
        </mxCell>
        <mxCell id="j5E1dJugW-yk9kZklkOu-106" value="" style="endArrow=none;html=1;rounded=0;exitX=0.5;exitY=0;exitDx=0;exitDy=0;entryX=0.288;entryY=0.96;entryDx=0;entryDy=0;entryPerimeter=0;" parent="1" source="j5E1dJugW-yk9kZklkOu-76" target="CgNlCqr_a4x8uy1vyfc3-9" edge="1">
          <mxGeometry width="50" height="50" relative="1" as="geometry">
            <mxPoint x="660" y="860" as="sourcePoint" />
            <mxPoint x="610" y="870" as="targetPoint" />
          </mxGeometry>
        </mxCell>
        <mxCell id="j5E1dJugW-yk9kZklkOu-107" value="" style="endArrow=none;html=1;rounded=0;entryX=0.618;entryY=1.02;entryDx=0;entryDy=0;entryPerimeter=0;" parent="1" source="j5E1dJugW-yk9kZklkOu-75" target="CgNlCqr_a4x8uy1vyfc3-9" edge="1">
          <mxGeometry width="50" height="50" relative="1" as="geometry">
            <mxPoint x="720" y="990" as="sourcePoint" />
            <mxPoint x="790" y="870" as="targetPoint" />
          </mxGeometry>
        </mxCell>
        <mxCell id="j5E1dJugW-yk9kZklkOu-108" value="" style="endArrow=none;html=1;rounded=0;entryX=1;entryY=1;entryDx=0;entryDy=0;exitX=0.442;exitY=0.023;exitDx=0;exitDy=0;exitPerimeter=0;" parent="1" source="j5E1dJugW-yk9kZklkOu-73" target="CgNlCqr_a4x8uy1vyfc3-9" edge="1">
          <mxGeometry width="50" height="50" relative="1" as="geometry">
            <mxPoint x="1100" y="910" as="sourcePoint" />
            <mxPoint x="1110" y="880" as="targetPoint" />
          </mxGeometry>
        </mxCell>
        <mxCell id="j5E1dJugW-yk9kZklkOu-109" value="" style="endArrow=none;html=1;rounded=0;exitX=0.5;exitY=0;exitDx=0;exitDy=0;" parent="1" source="j5E1dJugW-yk9kZklkOu-74" edge="1">
          <mxGeometry width="50" height="50" relative="1" as="geometry">
            <mxPoint x="940" y="910" as="sourcePoint" />
            <mxPoint x="760" y="780" as="targetPoint" />
          </mxGeometry>
        </mxCell>
        <mxCell id="j5E1dJugW-yk9kZklkOu-110" value="" style="endArrow=none;html=1;rounded=0;exitX=0.582;exitY=0.983;exitDx=0;exitDy=0;exitPerimeter=0;" parent="1" source="j5E1dJugW-yk9kZklkOu-75" edge="1">
          <mxGeometry width="50" height="50" relative="1" as="geometry">
            <mxPoint x="720" y="990" as="sourcePoint" />
            <mxPoint x="850" y="1030" as="targetPoint" />
          </mxGeometry>
        </mxCell>
        <mxCell id="j5E1dJugW-yk9kZklkOu-118" value="Cường độ&lt;br&gt;ánh sáng&lt;br&gt;hiện tại" style="ellipse;whiteSpace=wrap;html=1;" parent="1" vertex="1">
          <mxGeometry x="750" y="1090" width="80" height="80" as="geometry" />
        </mxCell>
        <mxCell id="j5E1dJugW-yk9kZklkOu-119" value="" style="endArrow=none;html=1;rounded=0;entryX=0.562;entryY=0.997;entryDx=0;entryDy=0;entryPerimeter=0;exitX=0.5;exitY=0;exitDx=0;exitDy=0;" parent="1" source="j5E1dJugW-yk9kZklkOu-118" target="j5E1dJugW-yk9kZklkOu-75" edge="1">
          <mxGeometry width="50" height="50" relative="1" as="geometry">
            <mxPoint x="720" y="990" as="sourcePoint" />
            <mxPoint x="770" y="940" as="targetPoint" />
          </mxGeometry>
        </mxCell>
        <mxCell id="j5E1dJugW-yk9kZklkOu-120" value="" style="endArrow=none;html=1;rounded=0;entryX=0.572;entryY=1.037;entryDx=0;entryDy=0;entryPerimeter=0;exitX=0.38;exitY=-0.027;exitDx=0;exitDy=0;exitPerimeter=0;" parent="1" source="j5E1dJugW-yk9kZklkOu-80" target="j5E1dJugW-yk9kZklkOu-74" edge="1">
          <mxGeometry width="50" height="50" relative="1" as="geometry">
            <mxPoint x="720" y="990" as="sourcePoint" />
            <mxPoint x="770" y="940" as="targetPoint" />
          </mxGeometry>
        </mxCell>
        <mxCell id="CgNlCqr_a4x8uy1vyfc3-3" value="d" style="ellipse;whiteSpace=wrap;html=1;" parent="1" vertex="1">
          <mxGeometry x="840" y="340" width="70" height="80" as="geometry" />
        </mxCell>
        <mxCell id="CgNlCqr_a4x8uy1vyfc3-4" value="" style="endArrow=none;html=1;rounded=0;" parent="1" edge="1">
          <mxGeometry width="50" height="50" relative="1" as="geometry">
            <mxPoint x="780" y="390" as="sourcePoint" />
            <mxPoint x="840" y="390" as="targetPoint" />
          </mxGeometry>
        </mxCell>
        <mxCell id="CgNlCqr_a4x8uy1vyfc3-6" value="" style="endArrow=none;html=1;rounded=0;exitX=1;exitY=0.5;exitDx=0;exitDy=0;" parent="1" source="CgNlCqr_a4x8uy1vyfc3-3" edge="1">
          <mxGeometry width="50" height="50" relative="1" as="geometry">
            <mxPoint x="780" y="420" as="sourcePoint" />
            <mxPoint x="1030" y="380" as="targetPoint" />
          </mxGeometry>
        </mxCell>
        <mxCell id="CgNlCqr_a4x8uy1vyfc3-7" value="" style="endArrow=none;html=1;rounded=0;entryX=0;entryY=0.5;entryDx=0;entryDy=0;exitX=1;exitY=0.5;exitDx=0;exitDy=0;" parent="1" source="CgNlCqr_a4x8uy1vyfc3-3" target="j5E1dJugW-yk9kZklkOu-39" edge="1">
          <mxGeometry width="50" height="50" relative="1" as="geometry">
            <mxPoint x="780" y="420" as="sourcePoint" />
            <mxPoint x="830" y="370" as="targetPoint" />
          </mxGeometry>
        </mxCell>
        <mxCell id="CgNlCqr_a4x8uy1vyfc3-8" value="" style="endArrow=none;html=1;rounded=0;entryX=0;entryY=0.5;entryDx=0;entryDy=0;exitX=1;exitY=0.5;exitDx=0;exitDy=0;" parent="1" source="CgNlCqr_a4x8uy1vyfc3-3" target="j5E1dJugW-yk9kZklkOu-37" edge="1">
          <mxGeometry width="50" height="50" relative="1" as="geometry">
            <mxPoint x="780" y="420" as="sourcePoint" />
            <mxPoint x="830" y="370" as="targetPoint" />
          </mxGeometry>
        </mxCell>
        <mxCell id="CgNlCqr_a4x8uy1vyfc3-9" value="d" style="ellipse;whiteSpace=wrap;html=1;aspect=fixed;" parent="1" vertex="1">
          <mxGeometry x="700" y="710" width="80" height="80" as="geometry" />
        </mxCell>
        <mxCell id="CgNlCqr_a4x8uy1vyfc3-10" value="" style="endArrow=none;html=1;rounded=0;exitX=0.5;exitY=0;exitDx=0;exitDy=0;" parent="1" source="CgNlCqr_a4x8uy1vyfc3-9" edge="1">
          <mxGeometry width="50" height="50" relative="1" as="geometry">
            <mxPoint x="780" y="820" as="sourcePoint" />
            <mxPoint x="740" y="650" as="targetPoint" />
          </mxGeometry>
        </mxCell>
        <mxCell id="CgNlCqr_a4x8uy1vyfc3-20" value="" style="endArrow=none;html=1;rounded=0;" parent="1" edge="1">
          <mxGeometry width="50" height="50" relative="1" as="geometry">
            <mxPoint x="1000" y="320" as="sourcePoint" />
            <mxPoint x="970" y="290" as="targetPoint" />
            <Array as="points">
              <mxPoint x="1000" y="290" />
            </Array>
          </mxGeometry>
        </mxCell>
        <mxCell id="CgNlCqr_a4x8uy1vyfc3-21" value="" style="endArrow=none;html=1;rounded=0;" parent="1" edge="1">
          <mxGeometry width="50" height="50" relative="1" as="geometry">
            <mxPoint x="980" y="480" as="sourcePoint" />
            <mxPoint x="1020" y="450" as="targetPoint" />
            <Array as="points">
              <mxPoint x="1020" y="480" />
            </Array>
          </mxGeometry>
        </mxCell>
        <mxCell id="CgNlCqr_a4x8uy1vyfc3-22" value="" style="endArrow=none;html=1;rounded=0;" parent="1" edge="1">
          <mxGeometry width="50" height="50" relative="1" as="geometry">
            <mxPoint x="1010" y="400" as="sourcePoint" />
            <mxPoint x="1020" y="355" as="targetPoint" />
            <Array as="points">
              <mxPoint x="1040" y="380" />
            </Array>
          </mxGeometry>
        </mxCell>
        <mxCell id="CgNlCqr_a4x8uy1vyfc3-23" value="" style="endArrow=none;html=1;rounded=0;" parent="1" edge="1">
          <mxGeometry width="50" height="50" relative="1" as="geometry">
            <mxPoint x="690" y="840" as="sourcePoint" />
            <mxPoint x="660" y="820" as="targetPoint" />
            <Array as="points">
              <mxPoint x="660" y="850" />
            </Array>
          </mxGeometry>
        </mxCell>
        <mxCell id="CgNlCqr_a4x8uy1vyfc3-24" value="" style="endArrow=none;html=1;rounded=0;" parent="1" edge="1">
          <mxGeometry width="50" height="50" relative="1" as="geometry">
            <mxPoint x="750" y="870" as="sourcePoint" />
            <mxPoint x="780" y="860" as="targetPoint" />
            <Array as="points">
              <mxPoint x="770" y="880" />
            </Array>
          </mxGeometry>
        </mxCell>
        <mxCell id="CgNlCqr_a4x8uy1vyfc3-25" value="" style="endArrow=none;html=1;rounded=0;" parent="1" edge="1">
          <mxGeometry width="50" height="50" relative="1" as="geometry">
            <mxPoint x="840" y="860" as="sourcePoint" />
            <mxPoint x="860" y="840" as="targetPoint" />
            <Array as="points">
              <mxPoint x="870" y="860" />
            </Array>
          </mxGeometry>
        </mxCell>
        <mxCell id="CgNlCqr_a4x8uy1vyfc3-26" value="" style="endArrow=none;html=1;rounded=0;" parent="1" edge="1">
          <mxGeometry width="50" height="50" relative="1" as="geometry">
            <mxPoint x="940" y="870" as="sourcePoint" />
            <mxPoint x="970" y="840" as="targetPoint" />
            <Array as="points">
              <mxPoint x="970" y="860" />
            </Array>
          </mxGeometry>
        </mxCell>
        <mxCell id="CgNlCqr_a4x8uy1vyfc3-27" value="1" style="text;html=1;align=center;verticalAlign=middle;resizable=0;points=[];autosize=1;strokeColor=none;fillColor=none;" parent="1" vertex="1">
          <mxGeometry x="155" y="825" width="30" height="30" as="geometry" />
        </mxCell>
        <mxCell id="CgNlCqr_a4x8uy1vyfc3-28" value="M" style="text;html=1;align=center;verticalAlign=middle;resizable=0;points=[];autosize=1;strokeColor=none;fillColor=none;" parent="1" vertex="1">
          <mxGeometry x="155" y="525" width="30" height="30" as="geometry" />
        </mxCell>
      </root>
    </mxGraphModel>
  </diagram>
</mxfile>
